<svg width="205" height="392" viewBox="0 0 205 392" fill="none" xmlns="http://www.w3.org/2000/svg">
<rect x="1" y="26" width="204" height="366" rx="20" fill="white"/>
<rect x="68" width="70" height="37" rx="10" fill="white"/>
<path d="M0 46C0 34.9543 8.9543 26 20 26H185C196.046 26 205 34.9543 205 46V127H0V46Z" fill="#1846BE"/>
<path d="M89.8996 68.699C89.9696 68.2137 90.1049 67.789 90.3056 67.425C90.5062 67.0563 90.7559 66.7507 91.0546 66.508C91.3579 66.2607 91.7032 66.0763 92.0906 65.955C92.4826 65.829 92.9026 65.766 93.3506 65.766C93.8172 65.766 94.2372 65.8337 94.6106 65.969C94.9886 66.0997 95.3106 66.284 95.5766 66.522C95.8426 66.7553 96.0456 67.0307 96.1856 67.348C96.3302 67.6653 96.4026 68.0083 96.4026 68.377C96.4026 68.699 96.3652 68.9837 96.2906 69.231C96.2206 69.4737 96.1179 69.686 95.9826 69.868C95.8472 70.05 95.6792 70.204 95.4786 70.33C95.2779 70.456 95.0516 70.561 94.7996 70.645C95.4062 70.8363 95.8589 71.128 96.1576 71.52C96.4562 71.912 96.6056 72.4043 96.6056 72.997C96.6056 73.501 96.5122 73.9467 96.3256 74.334C96.1389 74.7213 95.8869 75.048 95.5696 75.314C95.2522 75.5753 94.8836 75.7737 94.4636 75.909C94.0482 76.0443 93.6072 76.112 93.1406 76.112C92.6319 76.112 92.1886 76.0537 91.8106 75.937C91.4326 75.8203 91.1036 75.6477 90.8236 75.419C90.5436 75.1903 90.3056 74.9103 90.1096 74.579C89.9136 74.2477 89.7456 73.865 89.6056 73.431L90.3686 73.116C90.5692 73.032 90.7559 73.011 90.9286 73.053C91.1059 73.0903 91.2342 73.1837 91.3136 73.333C91.3976 73.4963 91.4886 73.6573 91.5866 73.816C91.6892 73.9747 91.8106 74.117 91.9506 74.243C92.0906 74.3643 92.2539 74.4647 92.4406 74.544C92.6319 74.6187 92.8582 74.656 93.1196 74.656C93.4136 74.656 93.6702 74.6093 93.8896 74.516C94.1089 74.418 94.2909 74.292 94.4356 74.138C94.5849 73.984 94.6946 73.8137 94.7646 73.627C94.8392 73.4357 94.8766 73.2443 94.8766 73.053C94.8766 72.8103 94.8509 72.591 94.7996 72.395C94.7482 72.1943 94.6409 72.024 94.4776 71.884C94.3142 71.744 94.0786 71.6343 93.7706 71.555C93.4672 71.4757 93.0589 71.436 92.5456 71.436V70.204C92.9702 70.1993 93.3226 70.1597 93.6026 70.085C93.8826 70.0103 94.1042 69.9077 94.2676 69.777C94.4356 69.6417 94.5522 69.4807 94.6176 69.294C94.6829 69.1073 94.7156 68.902 94.7156 68.678C94.7156 68.202 94.5826 67.8403 94.3166 67.593C94.0506 67.3457 93.6959 67.222 93.2526 67.222C93.0472 67.222 92.8582 67.2523 92.6856 67.313C92.5129 67.369 92.3566 67.4507 92.2166 67.558C92.0812 67.6607 91.9669 67.782 91.8736 67.922C91.7802 68.062 91.7102 68.216 91.6636 68.384C91.5842 68.5987 91.4792 68.741 91.3486 68.811C91.2226 68.881 91.0429 68.8973 90.8096 68.86L89.8996 68.699ZM105.035 70.939C105.035 71.821 104.939 72.5887 104.748 73.242C104.561 73.8907 104.3 74.4273 103.964 74.852C103.632 75.2767 103.238 75.594 102.781 75.804C102.328 76.0093 101.838 76.112 101.311 76.112C100.783 76.112 100.293 76.0093 99.8406 75.804C99.3926 75.594 99.003 75.2767 98.6716 74.852C98.3403 74.4273 98.0813 73.8907 97.8946 73.242C97.708 72.5887 97.6146 71.821 97.6146 70.939C97.6146 70.0523 97.708 69.2847 97.8946 68.636C98.0813 67.9873 98.3403 67.4507 98.6716 67.026C99.003 66.6013 99.3926 66.2863 99.8406 66.081C100.293 65.871 100.783 65.766 101.311 65.766C101.838 65.766 102.328 65.871 102.781 66.081C103.238 66.2863 103.632 66.6013 103.964 67.026C104.3 67.4507 104.561 67.9873 104.748 68.636C104.939 69.2847 105.035 70.0523 105.035 70.939ZM103.25 70.939C103.25 70.2063 103.196 69.5997 103.089 69.119C102.981 68.6383 102.837 68.2557 102.655 67.971C102.477 67.6863 102.272 67.488 102.039 67.376C101.805 67.2593 101.563 67.201 101.311 67.201C101.063 67.201 100.823 67.2593 100.59 67.376C100.361 67.488 100.158 67.6863 99.9806 67.971C99.8033 68.2557 99.661 68.6383 99.5536 69.119C99.451 69.5997 99.3996 70.2063 99.3996 70.939C99.3996 71.6717 99.451 72.2783 99.5536 72.759C99.661 73.2397 99.8033 73.6223 99.9806 73.907C100.158 74.1917 100.361 74.3923 100.59 74.509C100.823 74.621 101.063 74.677 101.311 74.677C101.563 74.677 101.805 74.621 102.039 74.509C102.272 74.3923 102.477 74.1917 102.655 73.907C102.837 73.6223 102.981 73.2397 103.089 72.759C103.196 72.2783 103.25 71.6717 103.25 70.939ZM110.601 68.328C110.601 68.7107 110.535 69.056 110.405 69.364C110.279 69.672 110.108 69.9357 109.894 70.155C109.679 70.3697 109.429 70.5353 109.145 70.652C108.86 70.7687 108.564 70.827 108.256 70.827C107.92 70.827 107.609 70.7687 107.325 70.652C107.04 70.5353 106.793 70.3697 106.583 70.155C106.377 69.9357 106.216 69.672 106.1 69.364C105.983 69.056 105.925 68.7107 105.925 68.328C105.925 67.936 105.983 67.5813 106.1 67.264C106.216 66.9467 106.377 66.6783 106.583 66.459C106.793 66.2397 107.04 66.0717 107.325 65.955C107.609 65.8337 107.92 65.773 108.256 65.773C108.592 65.773 108.902 65.8337 109.187 65.955C109.476 66.0717 109.726 66.2397 109.936 66.459C110.146 66.6783 110.309 66.9467 110.426 67.264C110.542 67.5813 110.601 67.936 110.601 68.328ZM109.271 68.328C109.271 68.0573 109.243 67.831 109.187 67.649C109.135 67.467 109.063 67.32 108.97 67.208C108.881 67.096 108.774 67.0167 108.648 66.97C108.526 66.9187 108.396 66.893 108.256 66.893C108.116 66.893 107.985 66.9187 107.864 66.97C107.742 67.0167 107.637 67.096 107.549 67.208C107.465 67.32 107.397 67.467 107.346 67.649C107.294 67.831 107.269 68.0573 107.269 68.328C107.269 68.5893 107.294 68.8087 107.346 68.986C107.397 69.1587 107.465 69.2987 107.549 69.406C107.637 69.5133 107.742 69.5903 107.864 69.637C107.985 69.6837 108.116 69.707 108.256 69.707C108.396 69.707 108.526 69.6837 108.648 69.637C108.774 69.5903 108.881 69.5133 108.97 69.406C109.063 69.2987 109.135 69.1587 109.187 68.986C109.243 68.8087 109.271 68.5893 109.271 68.328ZM113.968 66.151C114.028 66.081 114.098 66.018 114.178 65.962C114.262 65.906 114.378 65.878 114.528 65.878H115.788L108.27 75.741C108.209 75.8157 108.137 75.8787 108.053 75.93C107.969 75.9767 107.866 76 107.745 76H106.457L113.968 66.151ZM116.32 73.62C116.32 74.0027 116.254 74.348 116.124 74.656C115.998 74.964 115.827 75.2277 115.613 75.447C115.398 75.6617 115.148 75.8297 114.864 75.951C114.579 76.0677 114.283 76.126 113.975 76.126C113.639 76.126 113.328 76.0677 113.044 75.951C112.759 75.8297 112.512 75.6617 112.302 75.447C112.096 75.2277 111.935 74.964 111.819 74.656C111.702 74.348 111.644 74.0027 111.644 73.62C111.644 73.228 111.702 72.8733 111.819 72.556C111.935 72.2387 112.096 71.9703 112.302 71.751C112.512 71.5317 112.759 71.3637 113.044 71.247C113.328 71.1257 113.639 71.065 113.975 71.065C114.311 71.065 114.621 71.1257 114.906 71.247C115.195 71.3637 115.442 71.5317 115.648 71.751C115.858 71.9703 116.021 72.2387 116.138 72.556C116.259 72.8733 116.32 73.228 116.32 73.62ZM114.983 73.62C114.983 73.3493 114.957 73.123 114.906 72.941C114.854 72.759 114.782 72.612 114.689 72.5C114.6 72.388 114.493 72.3087 114.367 72.262C114.245 72.2107 114.115 72.185 113.975 72.185C113.835 72.185 113.704 72.2107 113.583 72.262C113.461 72.3087 113.356 72.388 113.268 72.5C113.179 72.612 113.109 72.759 113.058 72.941C113.011 73.123 112.988 73.3493 112.988 73.62C112.988 73.8813 113.011 74.1007 113.058 74.278C113.109 74.4553 113.179 74.5977 113.268 74.705C113.356 74.8123 113.461 74.8893 113.583 74.936C113.704 74.9827 113.835 75.006 113.975 75.006C114.115 75.006 114.245 74.9827 114.367 74.936C114.493 74.8893 114.6 74.8123 114.689 74.705C114.782 74.5977 114.854 74.4553 114.906 74.278C114.957 74.1007 114.983 73.8813 114.983 73.62ZM76.1645 84.376V87.372H79.9585V88.877H76.1645V93H74.2745V82.878H80.6585V84.376H76.1645ZM84.7818 89.934C84.2825 89.9573 83.8625 90.0017 83.5218 90.067C83.1811 90.1277 82.9081 90.207 82.7028 90.305C82.4975 90.403 82.3505 90.5173 82.2618 90.648C82.1731 90.7787 82.1288 90.921 82.1288 91.075C82.1288 91.3783 82.2175 91.5953 82.3948 91.726C82.5768 91.8567 82.8125 91.922 83.1018 91.922C83.4565 91.922 83.7621 91.859 84.0188 91.733C84.2801 91.6023 84.5345 91.4063 84.7818 91.145V89.934ZM80.8198 86.819C81.6458 86.063 82.6398 85.685 83.8018 85.685C84.2218 85.685 84.5975 85.755 84.9288 85.895C85.2601 86.0303 85.5401 86.2217 85.7688 86.469C85.9975 86.7117 86.1701 87.0033 86.2868 87.344C86.4081 87.6847 86.4688 88.058 86.4688 88.464V93H85.6848C85.5215 93 85.3955 92.9767 85.3068 92.93C85.2181 92.8787 85.1481 92.7783 85.0968 92.629L84.9428 92.111C84.7608 92.2743 84.5835 92.419 84.4108 92.545C84.2381 92.6663 84.0585 92.769 83.8718 92.853C83.6851 92.937 83.4845 93 83.2698 93.042C83.0598 93.0887 82.8265 93.112 82.5698 93.112C82.2665 93.112 81.9865 93.0723 81.7298 92.993C81.4731 92.909 81.2515 92.7853 81.0648 92.622C80.8781 92.4587 80.7335 92.2557 80.6308 92.013C80.5281 91.7703 80.4768 91.488 80.4768 91.166C80.4768 90.984 80.5071 90.8043 80.5678 90.627C80.6285 90.445 80.7265 90.2723 80.8618 90.109C81.0018 89.9457 81.1815 89.7917 81.4008 89.647C81.6201 89.5023 81.8885 89.3763 82.2058 89.269C82.5278 89.1617 82.9011 89.0753 83.3258 89.01C83.7505 88.94 84.2358 88.898 84.7818 88.884V88.464C84.7818 87.9833 84.6791 87.6287 84.4738 87.4C84.2685 87.1667 83.9721 87.05 83.5848 87.05C83.3048 87.05 83.0715 87.0827 82.8848 87.148C82.7028 87.2133 82.5418 87.288 82.4018 87.372C82.2618 87.4513 82.1335 87.5237 82.0168 87.589C81.9048 87.6543 81.7788 87.687 81.6388 87.687C81.5175 87.687 81.4148 87.6567 81.3308 87.596C81.2468 87.5307 81.1791 87.456 81.1278 87.372L80.8198 86.819ZM93.2422 87.337C93.1908 87.4023 93.1395 87.4537 93.0882 87.491C93.0415 87.5283 92.9715 87.547 92.8782 87.547C92.7895 87.547 92.7032 87.5213 92.6192 87.47C92.5352 87.414 92.4348 87.3533 92.3182 87.288C92.2015 87.218 92.0615 87.1573 91.8982 87.106C91.7395 87.05 91.5412 87.022 91.3032 87.022C90.9998 87.022 90.7338 87.078 90.5052 87.19C90.2765 87.2973 90.0852 87.4537 89.9312 87.659C89.7818 87.8643 89.6698 88.114 89.5952 88.408C89.5205 88.6973 89.4832 89.0263 89.4832 89.395C89.4832 89.7777 89.5228 90.1183 89.6022 90.417C89.6862 90.7157 89.8052 90.9677 89.9592 91.173C90.1132 91.3737 90.2998 91.5277 90.5192 91.635C90.7385 91.7377 90.9858 91.789 91.2612 91.789C91.5365 91.789 91.7582 91.7563 91.9262 91.691C92.0988 91.621 92.2435 91.5463 92.3602 91.467C92.4768 91.383 92.5772 91.3083 92.6612 91.243C92.7498 91.173 92.8478 91.138 92.9552 91.138C93.0952 91.138 93.2002 91.1917 93.2702 91.299L93.7672 91.929C93.5758 92.153 93.3682 92.342 93.1442 92.496C92.9202 92.6453 92.6868 92.7667 92.4442 92.86C92.2062 92.9487 91.9588 93.0117 91.7022 93.049C91.4502 93.0863 91.1982 93.105 90.9462 93.105C90.5028 93.105 90.0852 93.0233 89.6932 92.86C89.3012 92.692 88.9582 92.4493 88.6642 92.132C88.3702 91.8147 88.1368 91.4273 87.9642 90.97C87.7962 90.508 87.7122 89.983 87.7122 89.395C87.7122 88.8677 87.7868 88.38 87.9362 87.932C88.0902 87.4793 88.3142 87.0897 88.6082 86.763C88.9022 86.4317 89.2662 86.1727 89.7002 85.986C90.1342 85.7993 90.6335 85.706 91.1982 85.706C91.7348 85.706 92.2038 85.7923 92.6052 85.965C93.0112 86.1377 93.3752 86.385 93.6972 86.707L93.2422 87.337ZM99.355 88.583C99.355 88.359 99.3224 88.149 99.257 87.953C99.1964 87.7523 99.103 87.5773 98.977 87.428C98.851 87.2787 98.69 87.162 98.494 87.078C98.3027 86.9893 98.0787 86.945 97.822 86.945C97.3227 86.945 96.9284 87.0873 96.639 87.372C96.3544 87.6567 96.1724 88.0603 96.093 88.583H99.355ZM96.058 89.626C96.086 89.9947 96.1514 90.3143 96.254 90.585C96.3567 90.851 96.492 91.0727 96.66 91.25C96.828 91.4227 97.0264 91.5533 97.255 91.642C97.4884 91.726 97.745 91.768 98.025 91.768C98.305 91.768 98.5454 91.7353 98.746 91.67C98.9514 91.6047 99.1287 91.5323 99.278 91.453C99.432 91.3737 99.565 91.3013 99.677 91.236C99.7937 91.1707 99.9057 91.138 100.013 91.138C100.158 91.138 100.265 91.1917 100.335 91.299L100.832 91.929C100.641 92.153 100.426 92.342 100.188 92.496C99.95 92.6453 99.7004 92.7667 99.439 92.86C99.1824 92.9487 98.9187 93.0117 98.648 93.049C98.382 93.0863 98.123 93.105 97.871 93.105C97.3717 93.105 96.9074 93.0233 96.478 92.86C96.0487 92.692 95.6754 92.447 95.358 92.125C95.0407 91.7983 94.791 91.397 94.609 90.921C94.427 90.4403 94.336 89.885 94.336 89.255C94.336 88.765 94.4154 88.3053 94.574 87.876C94.7327 87.442 94.959 87.0663 95.253 86.749C95.5517 86.427 95.9134 86.1727 96.338 85.986C96.7674 85.7993 97.2504 85.706 97.787 85.706C98.2397 85.706 98.6574 85.7783 99.04 85.923C99.4227 86.0677 99.7517 86.28 100.027 86.56C100.302 86.8353 100.517 87.176 100.671 87.582C100.83 87.9833 100.909 88.443 100.909 88.961C100.909 89.2223 100.881 89.3997 100.825 89.493C100.769 89.5817 100.662 89.626 100.503 89.626H96.058ZM103.936 91.138C104.132 91.376 104.344 91.544 104.573 91.642C104.806 91.74 105.051 91.789 105.308 91.789C105.574 91.789 105.812 91.7423 106.022 91.649C106.236 91.551 106.418 91.4017 106.568 91.201C106.717 90.9957 106.831 90.7367 106.911 90.424C106.99 90.1067 107.03 89.7287 107.03 89.29C107.03 88.5013 106.899 87.932 106.638 87.582C106.376 87.2273 106.001 87.05 105.511 87.05C105.179 87.05 104.89 87.127 104.643 87.281C104.395 87.4303 104.16 87.6427 103.936 87.918V91.138ZM103.936 86.7C104.225 86.3967 104.545 86.1563 104.895 85.979C105.249 85.797 105.653 85.706 106.106 85.706C106.521 85.706 106.894 85.7877 107.226 85.951C107.562 86.1143 107.846 86.35 108.08 86.658C108.318 86.9613 108.5 87.33 108.626 87.764C108.752 88.198 108.815 88.6857 108.815 89.227C108.815 89.8103 108.742 90.34 108.598 90.816C108.453 91.292 108.245 91.7003 107.975 92.041C107.709 92.377 107.387 92.6383 107.009 92.825C106.631 93.0117 106.211 93.105 105.749 93.105C105.525 93.105 105.322 93.0817 105.14 93.035C104.958 92.993 104.79 92.9323 104.636 92.853C104.482 92.7737 104.339 92.678 104.209 92.566C104.083 92.4493 103.961 92.321 103.845 92.181L103.768 92.664C103.74 92.7853 103.691 92.8717 103.621 92.923C103.555 92.9743 103.464 93 103.348 93H102.207V82.598H103.936V86.7ZM113.328 85.706C113.86 85.706 114.343 85.7923 114.777 85.965C115.216 86.1377 115.589 86.3827 115.897 86.7C116.21 87.0173 116.45 87.4047 116.618 87.862C116.786 88.3193 116.87 88.8303 116.87 89.395C116.87 89.9643 116.786 90.4777 116.618 90.935C116.45 91.3923 116.21 91.782 115.897 92.104C115.589 92.426 115.216 92.6733 114.777 92.846C114.343 93.0187 113.86 93.105 113.328 93.105C112.791 93.105 112.304 93.0187 111.865 92.846C111.426 92.6733 111.051 92.426 110.738 92.104C110.43 91.782 110.19 91.3923 110.017 90.935C109.849 90.4777 109.765 89.9643 109.765 89.395C109.765 88.8303 109.849 88.3193 110.017 87.862C110.19 87.4047 110.43 87.0173 110.738 86.7C111.051 86.3827 111.426 86.1377 111.865 85.965C112.304 85.7923 112.791 85.706 113.328 85.706ZM113.328 91.775C113.925 91.775 114.366 91.5743 114.651 91.173C114.94 90.7717 115.085 90.1837 115.085 89.409C115.085 88.6343 114.94 88.044 114.651 87.638C114.366 87.232 113.925 87.029 113.328 87.029C112.721 87.029 112.271 87.2343 111.977 87.645C111.688 88.051 111.543 88.639 111.543 89.409C111.543 90.179 111.688 90.767 111.977 91.173C112.271 91.5743 112.721 91.775 113.328 91.775ZM121.367 85.706C121.899 85.706 122.382 85.7923 122.816 85.965C123.255 86.1377 123.628 86.3827 123.936 86.7C124.249 87.0173 124.489 87.4047 124.657 87.862C124.825 88.3193 124.909 88.8303 124.909 89.395C124.909 89.9643 124.825 90.4777 124.657 90.935C124.489 91.3923 124.249 91.782 123.936 92.104C123.628 92.426 123.255 92.6733 122.816 92.846C122.382 93.0187 121.899 93.105 121.367 93.105C120.83 93.105 120.343 93.0187 119.904 92.846C119.465 92.6733 119.09 92.426 118.777 92.104C118.469 91.782 118.229 91.3923 118.056 90.935C117.888 90.4777 117.804 89.9643 117.804 89.395C117.804 88.8303 117.888 88.3193 118.056 87.862C118.229 87.4047 118.469 87.0173 118.777 86.7C119.09 86.3827 119.465 86.1377 119.904 85.965C120.343 85.7923 120.83 85.706 121.367 85.706ZM121.367 91.775C121.964 91.775 122.405 91.5743 122.69 91.173C122.979 90.7717 123.124 90.1837 123.124 89.409C123.124 88.6343 122.979 88.044 122.69 87.638C122.405 87.232 121.964 87.029 121.367 87.029C120.76 87.029 120.31 87.2343 120.016 87.645C119.727 88.051 119.582 88.639 119.582 89.409C119.582 90.179 119.727 90.767 120.016 91.173C120.31 91.5743 120.76 91.775 121.367 91.775ZM127.957 82.598V88.555H128.279C128.396 88.555 128.487 88.541 128.552 88.513C128.622 88.4803 128.692 88.4173 128.762 88.324L130.547 86.119C130.622 86.021 130.703 85.9463 130.792 85.895C130.885 85.8437 131.004 85.818 131.149 85.818H132.731L130.498 88.485C130.339 88.695 130.167 88.856 129.98 88.968C130.078 89.038 130.164 89.1197 130.239 89.213C130.318 89.3063 130.393 89.4067 130.463 89.514L132.857 93H131.296C131.161 93 131.044 92.979 130.946 92.937C130.848 92.8903 130.766 92.8087 130.701 92.692L128.867 89.969C128.802 89.8617 128.734 89.7917 128.664 89.759C128.594 89.7263 128.489 89.71 128.349 89.71H127.957V93H126.228V82.598H127.957Z" fill="white"/>
<rect x="1" y="127" width="204" height="83" fill="#82F3AF"/>
<path d="M1 210H205V372C205 383.046 196.046 392 185 392H21C9.9543 392 1 383.046 1 372V210Z" fill="#AD82F3"/>
<path d="M89.8996 157.699C89.9696 157.214 90.1049 156.789 90.3056 156.425C90.5062 156.056 90.7559 155.751 91.0546 155.508C91.3579 155.261 91.7032 155.076 92.0906 154.955C92.4826 154.829 92.9026 154.766 93.3506 154.766C93.8172 154.766 94.2372 154.834 94.6106 154.969C94.9886 155.1 95.3106 155.284 95.5766 155.522C95.8426 155.755 96.0456 156.031 96.1856 156.348C96.3302 156.665 96.4026 157.008 96.4026 157.377C96.4026 157.699 96.3652 157.984 96.2906 158.231C96.2206 158.474 96.1179 158.686 95.9826 158.868C95.8472 159.05 95.6792 159.204 95.4786 159.33C95.2779 159.456 95.0516 159.561 94.7996 159.645C95.4062 159.836 95.8589 160.128 96.1576 160.52C96.4562 160.912 96.6056 161.404 96.6056 161.997C96.6056 162.501 96.5122 162.947 96.3256 163.334C96.1389 163.721 95.8869 164.048 95.5696 164.314C95.2522 164.575 94.8836 164.774 94.4636 164.909C94.0482 165.044 93.6072 165.112 93.1406 165.112C92.6319 165.112 92.1886 165.054 91.8106 164.937C91.4326 164.82 91.1036 164.648 90.8236 164.419C90.5436 164.19 90.3056 163.91 90.1096 163.579C89.9136 163.248 89.7456 162.865 89.6056 162.431L90.3686 162.116C90.5692 162.032 90.7559 162.011 90.9286 162.053C91.1059 162.09 91.2342 162.184 91.3136 162.333C91.3976 162.496 91.4886 162.657 91.5866 162.816C91.6892 162.975 91.8106 163.117 91.9506 163.243C92.0906 163.364 92.2539 163.465 92.4406 163.544C92.6319 163.619 92.8582 163.656 93.1196 163.656C93.4136 163.656 93.6702 163.609 93.8896 163.516C94.1089 163.418 94.2909 163.292 94.4356 163.138C94.5849 162.984 94.6946 162.814 94.7646 162.627C94.8392 162.436 94.8766 162.244 94.8766 162.053C94.8766 161.81 94.8509 161.591 94.7996 161.395C94.7482 161.194 94.6409 161.024 94.4776 160.884C94.3142 160.744 94.0786 160.634 93.7706 160.555C93.4672 160.476 93.0589 160.436 92.5456 160.436V159.204C92.9702 159.199 93.3226 159.16 93.6026 159.085C93.8826 159.01 94.1042 158.908 94.2676 158.777C94.4356 158.642 94.5522 158.481 94.6176 158.294C94.6829 158.107 94.7156 157.902 94.7156 157.678C94.7156 157.202 94.5826 156.84 94.3166 156.593C94.0506 156.346 93.6959 156.222 93.2526 156.222C93.0472 156.222 92.8582 156.252 92.6856 156.313C92.5129 156.369 92.3566 156.451 92.2166 156.558C92.0812 156.661 91.9669 156.782 91.8736 156.922C91.7802 157.062 91.7102 157.216 91.6636 157.384C91.5842 157.599 91.4792 157.741 91.3486 157.811C91.2226 157.881 91.0429 157.897 90.8096 157.86L89.8996 157.699ZM105.035 159.939C105.035 160.821 104.939 161.589 104.748 162.242C104.561 162.891 104.3 163.427 103.964 163.852C103.632 164.277 103.238 164.594 102.781 164.804C102.328 165.009 101.838 165.112 101.311 165.112C100.783 165.112 100.293 165.009 99.8406 164.804C99.3926 164.594 99.003 164.277 98.6716 163.852C98.3403 163.427 98.0813 162.891 97.8946 162.242C97.708 161.589 97.6146 160.821 97.6146 159.939C97.6146 159.052 97.708 158.285 97.8946 157.636C98.0813 156.987 98.3403 156.451 98.6716 156.026C99.003 155.601 99.3926 155.286 99.8406 155.081C100.293 154.871 100.783 154.766 101.311 154.766C101.838 154.766 102.328 154.871 102.781 155.081C103.238 155.286 103.632 155.601 103.964 156.026C104.3 156.451 104.561 156.987 104.748 157.636C104.939 158.285 105.035 159.052 105.035 159.939ZM103.25 159.939C103.25 159.206 103.196 158.6 103.089 158.119C102.981 157.638 102.837 157.256 102.655 156.971C102.477 156.686 102.272 156.488 102.039 156.376C101.805 156.259 101.563 156.201 101.311 156.201C101.063 156.201 100.823 156.259 100.59 156.376C100.361 156.488 100.158 156.686 99.9806 156.971C99.8033 157.256 99.661 157.638 99.5536 158.119C99.451 158.6 99.3996 159.206 99.3996 159.939C99.3996 160.672 99.451 161.278 99.5536 161.759C99.661 162.24 99.8033 162.622 99.9806 162.907C100.158 163.192 100.361 163.392 100.59 163.509C100.823 163.621 101.063 163.677 101.311 163.677C101.563 163.677 101.805 163.621 102.039 163.509C102.272 163.392 102.477 163.192 102.655 162.907C102.837 162.622 102.981 162.24 103.089 161.759C103.196 161.278 103.25 160.672 103.25 159.939ZM110.601 157.328C110.601 157.711 110.535 158.056 110.405 158.364C110.279 158.672 110.108 158.936 109.894 159.155C109.679 159.37 109.429 159.535 109.145 159.652C108.86 159.769 108.564 159.827 108.256 159.827C107.92 159.827 107.609 159.769 107.325 159.652C107.04 159.535 106.793 159.37 106.583 159.155C106.377 158.936 106.216 158.672 106.1 158.364C105.983 158.056 105.925 157.711 105.925 157.328C105.925 156.936 105.983 156.581 106.1 156.264C106.216 155.947 106.377 155.678 106.583 155.459C106.793 155.24 107.04 155.072 107.325 154.955C107.609 154.834 107.92 154.773 108.256 154.773C108.592 154.773 108.902 154.834 109.187 154.955C109.476 155.072 109.726 155.24 109.936 155.459C110.146 155.678 110.309 155.947 110.426 156.264C110.542 156.581 110.601 156.936 110.601 157.328ZM109.271 157.328C109.271 157.057 109.243 156.831 109.187 156.649C109.135 156.467 109.063 156.32 108.97 156.208C108.881 156.096 108.774 156.017 108.648 155.97C108.526 155.919 108.396 155.893 108.256 155.893C108.116 155.893 107.985 155.919 107.864 155.97C107.742 156.017 107.637 156.096 107.549 156.208C107.465 156.32 107.397 156.467 107.346 156.649C107.294 156.831 107.269 157.057 107.269 157.328C107.269 157.589 107.294 157.809 107.346 157.986C107.397 158.159 107.465 158.299 107.549 158.406C107.637 158.513 107.742 158.59 107.864 158.637C107.985 158.684 108.116 158.707 108.256 158.707C108.396 158.707 108.526 158.684 108.648 158.637C108.774 158.59 108.881 158.513 108.97 158.406C109.063 158.299 109.135 158.159 109.187 157.986C109.243 157.809 109.271 157.589 109.271 157.328ZM113.968 155.151C114.028 155.081 114.098 155.018 114.178 154.962C114.262 154.906 114.378 154.878 114.528 154.878H115.788L108.27 164.741C108.209 164.816 108.137 164.879 108.053 164.93C107.969 164.977 107.866 165 107.745 165H106.457L113.968 155.151ZM116.32 162.62C116.32 163.003 116.254 163.348 116.124 163.656C115.998 163.964 115.827 164.228 115.613 164.447C115.398 164.662 115.148 164.83 114.864 164.951C114.579 165.068 114.283 165.126 113.975 165.126C113.639 165.126 113.328 165.068 113.044 164.951C112.759 164.83 112.512 164.662 112.302 164.447C112.096 164.228 111.935 163.964 111.819 163.656C111.702 163.348 111.644 163.003 111.644 162.62C111.644 162.228 111.702 161.873 111.819 161.556C111.935 161.239 112.096 160.97 112.302 160.751C112.512 160.532 112.759 160.364 113.044 160.247C113.328 160.126 113.639 160.065 113.975 160.065C114.311 160.065 114.621 160.126 114.906 160.247C115.195 160.364 115.442 160.532 115.648 160.751C115.858 160.97 116.021 161.239 116.138 161.556C116.259 161.873 116.32 162.228 116.32 162.62ZM114.983 162.62C114.983 162.349 114.957 162.123 114.906 161.941C114.854 161.759 114.782 161.612 114.689 161.5C114.6 161.388 114.493 161.309 114.367 161.262C114.245 161.211 114.115 161.185 113.975 161.185C113.835 161.185 113.704 161.211 113.583 161.262C113.461 161.309 113.356 161.388 113.268 161.5C113.179 161.612 113.109 161.759 113.058 161.941C113.011 162.123 112.988 162.349 112.988 162.62C112.988 162.881 113.011 163.101 113.058 163.278C113.109 163.455 113.179 163.598 113.268 163.705C113.356 163.812 113.461 163.889 113.583 163.936C113.704 163.983 113.835 164.006 113.975 164.006C114.115 164.006 114.245 163.983 114.367 163.936C114.493 163.889 114.6 163.812 114.689 163.705C114.782 163.598 114.854 163.455 114.906 163.278C114.957 163.101 114.983 162.881 114.983 162.62ZM85.6438 171.878L82.5008 182H80.7998L78.5878 175.084C78.5272 174.916 78.4712 174.711 78.4198 174.468C78.3918 174.585 78.3638 174.694 78.3358 174.797C78.3078 174.9 78.2775 174.995 78.2448 175.084L76.0118 182H74.3038L71.1678 171.878H72.7428C72.9062 171.878 73.0415 171.918 73.1488 171.997C73.2608 172.072 73.3355 172.174 73.3728 172.305L75.0948 178.36C75.1322 178.509 75.1672 178.673 75.1998 178.85C75.2372 179.023 75.2745 179.205 75.3118 179.396C75.3492 179.2 75.3888 179.016 75.4308 178.843C75.4775 178.67 75.5265 178.509 75.5778 178.36L77.5658 172.305C77.6032 172.198 77.6755 172.1 77.7828 172.011C77.8948 171.922 78.0302 171.878 78.1888 171.878H78.7418C78.9052 171.878 79.0382 171.918 79.1408 171.997C79.2435 172.076 79.3205 172.179 79.3718 172.305L81.3528 178.36C81.4508 178.649 81.5395 178.983 81.6188 179.361C81.6795 178.992 81.7472 178.659 81.8218 178.36L83.5438 172.305C83.5718 172.188 83.6418 172.088 83.7538 172.004C83.8705 171.92 84.0082 171.878 84.1668 171.878H85.6438ZM88.2334 175.588C88.5134 175.327 88.8214 175.114 89.1574 174.951C89.4934 174.788 89.8877 174.706 90.3404 174.706C90.7324 174.706 91.0801 174.774 91.3834 174.909C91.6867 175.04 91.9387 175.226 92.1394 175.469C92.3447 175.707 92.4987 175.994 92.6014 176.33C92.7087 176.661 92.7624 177.028 92.7624 177.429V182H91.0334V177.429C91.0334 176.99 90.9331 176.652 90.7324 176.414C90.5317 176.171 90.2261 176.05 89.8154 176.05C89.5167 176.05 89.2367 176.118 88.9754 176.253C88.7141 176.388 88.4667 176.573 88.2334 176.806V182H86.5044V171.598H88.2334V175.588ZM98.2007 178.934C97.7014 178.957 97.2814 179.002 96.9407 179.067C96.6001 179.128 96.3271 179.207 96.1217 179.305C95.9164 179.403 95.7694 179.517 95.6807 179.648C95.5921 179.779 95.5477 179.921 95.5477 180.075C95.5477 180.378 95.6364 180.595 95.8137 180.726C95.9957 180.857 96.2314 180.922 96.5207 180.922C96.8754 180.922 97.1811 180.859 97.4377 180.733C97.6991 180.602 97.9534 180.406 98.2007 180.145V178.934ZM94.2387 175.819C95.0647 175.063 96.0587 174.685 97.2207 174.685C97.6407 174.685 98.0164 174.755 98.3477 174.895C98.6791 175.03 98.9591 175.222 99.1877 175.469C99.4164 175.712 99.5891 176.003 99.7057 176.344C99.8271 176.685 99.8877 177.058 99.8877 177.464V182H99.1037C98.9404 182 98.8144 181.977 98.7257 181.93C98.6371 181.879 98.5671 181.778 98.5157 181.629L98.3617 181.111C98.1797 181.274 98.0024 181.419 97.8297 181.545C97.6571 181.666 97.4774 181.769 97.2907 181.853C97.1041 181.937 96.9034 182 96.6887 182.042C96.4787 182.089 96.2454 182.112 95.9887 182.112C95.6854 182.112 95.4054 182.072 95.1487 181.993C94.8921 181.909 94.6704 181.785 94.4837 181.622C94.2971 181.459 94.1524 181.256 94.0497 181.013C93.9471 180.77 93.8957 180.488 93.8957 180.166C93.8957 179.984 93.9261 179.804 93.9867 179.627C94.0474 179.445 94.1454 179.272 94.2807 179.109C94.4207 178.946 94.6004 178.792 94.8197 178.647C95.0391 178.502 95.3074 178.376 95.6247 178.269C95.9467 178.162 96.3201 178.075 96.7447 178.01C97.1694 177.94 97.6547 177.898 98.2007 177.884V177.464C98.2007 176.983 98.0981 176.629 97.8927 176.4C97.6874 176.167 97.3911 176.05 97.0037 176.05C96.7237 176.05 96.4904 176.083 96.3037 176.148C96.1217 176.213 95.9607 176.288 95.8207 176.372C95.6807 176.451 95.5524 176.524 95.4357 176.589C95.3237 176.654 95.1977 176.687 95.0577 176.687C94.9364 176.687 94.8337 176.657 94.7497 176.596C94.6657 176.531 94.5981 176.456 94.5467 176.372L94.2387 175.819ZM103.814 182.112C103.189 182.112 102.708 181.937 102.372 181.587C102.041 181.232 101.875 180.745 101.875 180.124V176.113H101.14C101.047 176.113 100.968 176.083 100.902 176.022C100.837 175.961 100.804 175.87 100.804 175.749V175.063L101.959 174.874L102.323 172.914C102.347 172.821 102.391 172.748 102.456 172.697C102.522 172.646 102.606 172.62 102.708 172.62H103.604V174.881H105.522V176.113H103.604V180.005C103.604 180.229 103.658 180.404 103.765 180.53C103.877 180.656 104.029 180.719 104.22 180.719C104.328 180.719 104.416 180.707 104.486 180.684C104.561 180.656 104.624 180.628 104.675 180.6C104.731 180.572 104.78 180.546 104.822 180.523C104.864 180.495 104.906 180.481 104.948 180.481C105 180.481 105.042 180.495 105.074 180.523C105.107 180.546 105.142 180.584 105.179 180.635L105.697 181.475C105.445 181.685 105.156 181.844 104.829 181.951C104.503 182.058 104.164 182.112 103.814 182.112ZM111.011 176.218C110.965 176.293 110.916 176.346 110.864 176.379C110.813 176.407 110.748 176.421 110.668 176.421C110.584 176.421 110.493 176.398 110.395 176.351C110.302 176.304 110.192 176.253 110.066 176.197C109.94 176.136 109.796 176.083 109.632 176.036C109.474 175.989 109.285 175.966 109.065 175.966C108.725 175.966 108.456 176.038 108.26 176.183C108.069 176.328 107.973 176.517 107.973 176.75C107.973 176.904 108.022 177.035 108.12 177.142C108.223 177.245 108.356 177.336 108.519 177.415C108.687 177.494 108.876 177.567 109.086 177.632C109.296 177.693 109.509 177.76 109.723 177.835C109.943 177.91 110.157 177.996 110.367 178.094C110.577 178.187 110.764 178.309 110.927 178.458C111.095 178.603 111.228 178.778 111.326 178.983C111.429 179.188 111.48 179.436 111.48 179.725C111.48 180.07 111.417 180.39 111.291 180.684C111.17 180.973 110.988 181.225 110.745 181.44C110.503 181.65 110.202 181.816 109.842 181.937C109.488 182.054 109.077 182.112 108.61 182.112C108.363 182.112 108.12 182.089 107.882 182.042C107.649 182 107.423 181.939 107.203 181.86C106.989 181.781 106.788 181.687 106.601 181.58C106.419 181.473 106.258 181.356 106.118 181.23L106.517 180.572C106.569 180.493 106.629 180.432 106.699 180.39C106.769 180.348 106.858 180.327 106.965 180.327C107.073 180.327 107.173 180.357 107.266 180.418C107.364 180.479 107.476 180.544 107.602 180.614C107.728 180.684 107.875 180.749 108.043 180.81C108.216 180.871 108.433 180.901 108.694 180.901C108.9 180.901 109.075 180.878 109.219 180.831C109.369 180.78 109.49 180.714 109.583 180.635C109.681 180.556 109.751 180.465 109.793 180.362C109.84 180.255 109.863 180.145 109.863 180.033C109.863 179.865 109.812 179.727 109.709 179.62C109.611 179.513 109.478 179.419 109.31 179.34C109.147 179.261 108.958 179.191 108.743 179.13C108.533 179.065 108.316 178.995 108.092 178.92C107.873 178.845 107.656 178.759 107.441 178.661C107.231 178.558 107.042 178.43 106.874 178.276C106.711 178.122 106.578 177.933 106.475 177.709C106.377 177.485 106.328 177.214 106.328 176.897C106.328 176.603 106.387 176.323 106.503 176.057C106.62 175.791 106.79 175.56 107.014 175.364C107.243 175.163 107.525 175.005 107.861 174.888C108.202 174.767 108.594 174.706 109.037 174.706C109.532 174.706 109.982 174.788 110.388 174.951C110.794 175.114 111.133 175.329 111.403 175.595L111.011 176.218ZM116.576 178.934C116.076 178.957 115.656 179.002 115.316 179.067C114.975 179.128 114.702 179.207 114.497 179.305C114.291 179.403 114.144 179.517 114.056 179.648C113.967 179.779 113.923 179.921 113.923 180.075C113.923 180.378 114.011 180.595 114.189 180.726C114.371 180.857 114.606 180.922 114.896 180.922C115.25 180.922 115.556 180.859 115.813 180.733C116.074 180.602 116.328 180.406 116.576 180.145V178.934ZM112.614 175.819C113.44 175.063 114.434 174.685 115.596 174.685C116.016 174.685 116.391 174.755 116.723 174.895C117.054 175.03 117.334 175.222 117.563 175.469C117.791 175.712 117.964 176.003 118.081 176.344C118.202 176.685 118.263 177.058 118.263 177.464V182H117.479C117.315 182 117.189 181.977 117.101 181.93C117.012 181.879 116.942 181.778 116.891 181.629L116.737 181.111C116.555 181.274 116.377 181.419 116.205 181.545C116.032 181.666 115.852 181.769 115.666 181.853C115.479 181.937 115.278 182 115.064 182.042C114.854 182.089 114.62 182.112 114.364 182.112C114.06 182.112 113.78 182.072 113.524 181.993C113.267 181.909 113.045 181.785 112.859 181.622C112.672 181.459 112.527 181.256 112.425 181.013C112.322 180.77 112.271 180.488 112.271 180.166C112.271 179.984 112.301 179.804 112.362 179.627C112.422 179.445 112.52 179.272 112.656 179.109C112.796 178.946 112.975 178.792 113.195 178.647C113.414 178.502 113.682 178.376 114 178.269C114.322 178.162 114.695 178.075 115.12 178.01C115.544 177.94 116.03 177.898 116.576 177.884V177.464C116.576 176.983 116.473 176.629 116.268 176.4C116.062 176.167 115.766 176.05 115.379 176.05C115.099 176.05 114.865 176.083 114.679 176.148C114.497 176.213 114.336 176.288 114.196 176.372C114.056 176.451 113.927 176.524 113.811 176.589C113.699 176.654 113.573 176.687 113.433 176.687C113.311 176.687 113.209 176.657 113.125 176.596C113.041 176.531 112.973 176.456 112.922 176.372L112.614 175.819ZM121.62 180.138C121.816 180.376 122.028 180.544 122.257 180.642C122.49 180.74 122.742 180.789 123.013 180.789C123.274 180.789 123.51 180.74 123.72 180.642C123.93 180.544 124.107 180.395 124.252 180.194C124.401 179.993 124.516 179.741 124.595 179.438C124.674 179.13 124.714 178.768 124.714 178.353C124.714 177.933 124.679 177.578 124.609 177.289C124.544 176.995 124.448 176.757 124.322 176.575C124.196 176.393 124.042 176.26 123.86 176.176C123.683 176.092 123.48 176.05 123.251 176.05C122.892 176.05 122.586 176.127 122.334 176.281C122.082 176.43 121.844 176.643 121.62 176.918V180.138ZM121.529 175.798C121.823 175.467 122.157 175.198 122.53 174.993C122.903 174.788 123.342 174.685 123.846 174.685C124.238 174.685 124.595 174.767 124.917 174.93C125.244 175.093 125.524 175.331 125.757 175.644C125.995 175.952 126.177 176.335 126.303 176.792C126.434 177.245 126.499 177.765 126.499 178.353C126.499 178.89 126.427 179.387 126.282 179.844C126.137 180.301 125.93 180.698 125.659 181.034C125.393 181.37 125.069 181.634 124.686 181.825C124.308 182.012 123.883 182.105 123.412 182.105C123.011 182.105 122.668 182.044 122.383 181.923C122.098 181.797 121.844 181.624 121.62 181.405V184.345H119.891V174.818H120.948C121.172 174.818 121.319 174.923 121.389 175.133L121.529 175.798ZM129.577 180.138C129.773 180.376 129.985 180.544 130.214 180.642C130.447 180.74 130.699 180.789 130.97 180.789C131.231 180.789 131.467 180.74 131.677 180.642C131.887 180.544 132.064 180.395 132.209 180.194C132.358 179.993 132.473 179.741 132.552 179.438C132.631 179.13 132.671 178.768 132.671 178.353C132.671 177.933 132.636 177.578 132.566 177.289C132.501 176.995 132.405 176.757 132.279 176.575C132.153 176.393 131.999 176.26 131.817 176.176C131.64 176.092 131.437 176.05 131.208 176.05C130.849 176.05 130.543 176.127 130.291 176.281C130.039 176.43 129.801 176.643 129.577 176.918V180.138ZM129.486 175.798C129.78 175.467 130.114 175.198 130.487 174.993C130.86 174.788 131.299 174.685 131.803 174.685C132.195 174.685 132.552 174.767 132.874 174.93C133.201 175.093 133.481 175.331 133.714 175.644C133.952 175.952 134.134 176.335 134.26 176.792C134.391 177.245 134.456 177.765 134.456 178.353C134.456 178.89 134.384 179.387 134.239 179.844C134.094 180.301 133.887 180.698 133.616 181.034C133.35 181.37 133.026 181.634 132.643 181.825C132.265 182.012 131.84 182.105 131.369 182.105C130.968 182.105 130.625 182.044 130.34 181.923C130.055 181.797 129.801 181.624 129.577 181.405V184.345H127.848V174.818H128.905C129.129 174.818 129.276 174.923 129.346 175.133L129.486 175.798Z" fill="white"/>
<path d="M94.1276 280.185V276.874C94.1276 276.561 94.1486 276.216 94.1906 275.838L91.0476 280.185H94.1276ZM96.9066 280.185V281.186C96.9066 281.279 96.8762 281.361 96.8156 281.431C96.7549 281.496 96.6686 281.529 96.5566 281.529H95.6326V284H94.1276V281.529H89.8576C89.7409 281.529 89.6382 281.494 89.5496 281.424C89.4609 281.349 89.4049 281.258 89.3816 281.151L89.1996 280.276L93.9946 273.871H95.6326V280.185H96.9066ZM105.035 278.939C105.035 279.821 104.939 280.589 104.748 281.242C104.561 281.891 104.3 282.427 103.964 282.852C103.632 283.277 103.238 283.594 102.781 283.804C102.328 284.009 101.838 284.112 101.311 284.112C100.783 284.112 100.293 284.009 99.8406 283.804C99.3926 283.594 99.003 283.277 98.6716 282.852C98.3403 282.427 98.0813 281.891 97.8946 281.242C97.708 280.589 97.6146 279.821 97.6146 278.939C97.6146 278.052 97.708 277.285 97.8946 276.636C98.0813 275.987 98.3403 275.451 98.6716 275.026C99.003 274.601 99.3926 274.286 99.8406 274.081C100.293 273.871 100.783 273.766 101.311 273.766C101.838 273.766 102.328 273.871 102.781 274.081C103.238 274.286 103.632 274.601 103.964 275.026C104.3 275.451 104.561 275.987 104.748 276.636C104.939 277.285 105.035 278.052 105.035 278.939ZM103.25 278.939C103.25 278.206 103.196 277.6 103.089 277.119C102.981 276.638 102.837 276.256 102.655 275.971C102.477 275.686 102.272 275.488 102.039 275.376C101.805 275.259 101.563 275.201 101.311 275.201C101.063 275.201 100.823 275.259 100.59 275.376C100.361 275.488 100.158 275.686 99.9806 275.971C99.8033 276.256 99.661 276.638 99.5536 277.119C99.451 277.6 99.3996 278.206 99.3996 278.939C99.3996 279.672 99.451 280.278 99.5536 280.759C99.661 281.24 99.8033 281.622 99.9806 281.907C100.158 282.192 100.361 282.392 100.59 282.509C100.823 282.621 101.063 282.677 101.311 282.677C101.563 282.677 101.805 282.621 102.039 282.509C102.272 282.392 102.477 282.192 102.655 281.907C102.837 281.622 102.981 281.24 103.089 280.759C103.196 280.278 103.25 279.672 103.25 278.939ZM110.601 276.328C110.601 276.711 110.535 277.056 110.405 277.364C110.279 277.672 110.108 277.936 109.894 278.155C109.679 278.37 109.429 278.535 109.145 278.652C108.86 278.769 108.564 278.827 108.256 278.827C107.92 278.827 107.609 278.769 107.325 278.652C107.04 278.535 106.793 278.37 106.583 278.155C106.377 277.936 106.216 277.672 106.1 277.364C105.983 277.056 105.925 276.711 105.925 276.328C105.925 275.936 105.983 275.581 106.1 275.264C106.216 274.947 106.377 274.678 106.583 274.459C106.793 274.24 107.04 274.072 107.325 273.955C107.609 273.834 107.92 273.773 108.256 273.773C108.592 273.773 108.902 273.834 109.187 273.955C109.476 274.072 109.726 274.24 109.936 274.459C110.146 274.678 110.309 274.947 110.426 275.264C110.542 275.581 110.601 275.936 110.601 276.328ZM109.271 276.328C109.271 276.057 109.243 275.831 109.187 275.649C109.135 275.467 109.063 275.32 108.97 275.208C108.881 275.096 108.774 275.017 108.648 274.97C108.526 274.919 108.396 274.893 108.256 274.893C108.116 274.893 107.985 274.919 107.864 274.97C107.742 275.017 107.637 275.096 107.549 275.208C107.465 275.32 107.397 275.467 107.346 275.649C107.294 275.831 107.269 276.057 107.269 276.328C107.269 276.589 107.294 276.809 107.346 276.986C107.397 277.159 107.465 277.299 107.549 277.406C107.637 277.513 107.742 277.59 107.864 277.637C107.985 277.684 108.116 277.707 108.256 277.707C108.396 277.707 108.526 277.684 108.648 277.637C108.774 277.59 108.881 277.513 108.97 277.406C109.063 277.299 109.135 277.159 109.187 276.986C109.243 276.809 109.271 276.589 109.271 276.328ZM113.968 274.151C114.028 274.081 114.098 274.018 114.178 273.962C114.262 273.906 114.378 273.878 114.528 273.878H115.788L108.27 283.741C108.209 283.816 108.137 283.879 108.053 283.93C107.969 283.977 107.866 284 107.745 284H106.457L113.968 274.151ZM116.32 281.62C116.32 282.003 116.254 282.348 116.124 282.656C115.998 282.964 115.827 283.228 115.613 283.447C115.398 283.662 115.148 283.83 114.864 283.951C114.579 284.068 114.283 284.126 113.975 284.126C113.639 284.126 113.328 284.068 113.044 283.951C112.759 283.83 112.512 283.662 112.302 283.447C112.096 283.228 111.935 282.964 111.819 282.656C111.702 282.348 111.644 282.003 111.644 281.62C111.644 281.228 111.702 280.873 111.819 280.556C111.935 280.239 112.096 279.97 112.302 279.751C112.512 279.532 112.759 279.364 113.044 279.247C113.328 279.126 113.639 279.065 113.975 279.065C114.311 279.065 114.621 279.126 114.906 279.247C115.195 279.364 115.442 279.532 115.648 279.751C115.858 279.97 116.021 280.239 116.138 280.556C116.259 280.873 116.32 281.228 116.32 281.62ZM114.983 281.62C114.983 281.349 114.957 281.123 114.906 280.941C114.854 280.759 114.782 280.612 114.689 280.5C114.6 280.388 114.493 280.309 114.367 280.262C114.245 280.211 114.115 280.185 113.975 280.185C113.835 280.185 113.704 280.211 113.583 280.262C113.461 280.309 113.356 280.388 113.268 280.5C113.179 280.612 113.109 280.759 113.058 280.941C113.011 281.123 112.988 281.349 112.988 281.62C112.988 281.881 113.011 282.101 113.058 282.278C113.109 282.455 113.179 282.598 113.268 282.705C113.356 282.812 113.461 282.889 113.583 282.936C113.704 282.983 113.835 283.006 113.975 283.006C114.115 283.006 114.245 282.983 114.367 282.936C114.493 282.889 114.6 282.812 114.689 282.705C114.782 282.598 114.854 282.455 114.906 282.278C114.957 282.101 114.983 281.881 114.983 281.62ZM92.1648 295.939C92.1648 296.681 92.0411 297.369 91.7938 298.004C91.5511 298.634 91.2058 299.18 90.7578 299.642C90.3098 300.104 89.7708 300.466 89.1408 300.727C88.5108 300.984 87.8108 301.112 87.0408 301.112C86.2754 301.112 85.5778 300.984 84.9478 300.727C84.3178 300.466 83.7764 300.104 83.3238 299.642C82.8758 299.18 82.5281 298.634 82.2808 298.004C82.0334 297.369 81.9098 296.681 81.9098 295.939C81.9098 295.197 82.0334 294.511 82.2808 293.881C82.5281 293.246 82.8758 292.698 83.3238 292.236C83.7764 291.774 84.3178 291.415 84.9478 291.158C85.5778 290.897 86.2754 290.766 87.0408 290.766C87.5541 290.766 88.0371 290.827 88.4898 290.948C88.9424 291.065 89.3578 291.233 89.7358 291.452C90.1138 291.667 90.4521 291.93 90.7508 292.243C91.0541 292.551 91.3108 292.896 91.5208 293.279C91.7308 293.662 91.8894 294.077 91.9968 294.525C92.1088 294.973 92.1648 295.444 92.1648 295.939ZM90.2398 295.939C90.2398 295.384 90.1651 294.887 90.0158 294.448C89.8664 294.005 89.6541 293.629 89.3788 293.321C89.1034 293.013 88.7674 292.777 88.3708 292.614C87.9788 292.451 87.5354 292.369 87.0408 292.369C86.5461 292.369 86.1004 292.451 85.7038 292.614C85.3118 292.777 84.9758 293.013 84.6958 293.321C84.4204 293.629 84.2081 294.005 84.0588 294.448C83.9094 294.887 83.8348 295.384 83.8348 295.939C83.8348 296.494 83.9094 296.994 84.0588 297.437C84.2081 297.876 84.4204 298.249 84.6958 298.557C84.9758 298.86 85.3118 299.094 85.7038 299.257C86.1004 299.42 86.5461 299.502 87.0408 299.502C87.5354 299.502 87.9788 299.42 88.3708 299.257C88.7674 299.094 89.1034 298.86 89.3788 298.557C89.6541 298.249 89.8664 297.876 90.0158 297.437C90.1651 296.994 90.2398 296.494 90.2398 295.939ZM95.9257 301.112C95.3004 301.112 94.8197 300.937 94.4837 300.587C94.1524 300.232 93.9867 299.745 93.9867 299.124V295.113H93.2517C93.1584 295.113 93.0791 295.083 93.0137 295.022C92.9484 294.961 92.9157 294.87 92.9157 294.749V294.063L94.0707 293.874L94.4347 291.914C94.4581 291.821 94.5024 291.748 94.5677 291.697C94.6331 291.646 94.7171 291.62 94.8197 291.62H95.7157V293.881H97.6337V295.113H95.7157V299.005C95.7157 299.229 95.7694 299.404 95.8767 299.53C95.9887 299.656 96.1404 299.719 96.3317 299.719C96.4391 299.719 96.5277 299.707 96.5977 299.684C96.6724 299.656 96.7354 299.628 96.7867 299.6C96.8427 299.572 96.8917 299.546 96.9337 299.523C96.9757 299.495 97.0177 299.481 97.0597 299.481C97.1111 299.481 97.1531 299.495 97.1857 299.523C97.2184 299.546 97.2534 299.584 97.2907 299.635L97.8087 300.475C97.5567 300.685 97.2674 300.844 96.9407 300.951C96.6141 301.058 96.2757 301.112 95.9257 301.112ZM100.47 294.588C100.75 294.327 101.058 294.114 101.394 293.951C101.73 293.788 102.124 293.706 102.577 293.706C102.969 293.706 103.316 293.774 103.62 293.909C103.923 294.04 104.175 294.226 104.376 294.469C104.581 294.707 104.735 294.994 104.838 295.33C104.945 295.661 104.999 296.028 104.999 296.429V301H103.27V296.429C103.27 295.99 103.169 295.652 102.969 295.414C102.768 295.171 102.462 295.05 102.052 295.05C101.753 295.05 101.473 295.118 101.212 295.253C100.95 295.388 100.703 295.573 100.47 295.806V301H98.7407V290.598H100.47V294.588ZM111.27 296.583C111.27 296.359 111.237 296.149 111.172 295.953C111.111 295.752 111.018 295.577 110.892 295.428C110.766 295.279 110.605 295.162 110.409 295.078C110.218 294.989 109.994 294.945 109.737 294.945C109.238 294.945 108.843 295.087 108.554 295.372C108.269 295.657 108.087 296.06 108.008 296.583H111.27ZM107.973 297.626C108.001 297.995 108.066 298.314 108.169 298.585C108.272 298.851 108.407 299.073 108.575 299.25C108.743 299.423 108.941 299.553 109.17 299.642C109.403 299.726 109.66 299.768 109.94 299.768C110.22 299.768 110.46 299.735 110.661 299.67C110.866 299.605 111.044 299.532 111.193 299.453C111.347 299.374 111.48 299.301 111.592 299.236C111.709 299.171 111.821 299.138 111.928 299.138C112.073 299.138 112.18 299.192 112.25 299.299L112.747 299.929C112.556 300.153 112.341 300.342 112.103 300.496C111.865 300.645 111.615 300.767 111.354 300.86C111.097 300.949 110.834 301.012 110.563 301.049C110.297 301.086 110.038 301.105 109.786 301.105C109.287 301.105 108.822 301.023 108.393 300.86C107.964 300.692 107.59 300.447 107.273 300.125C106.956 299.798 106.706 299.397 106.524 298.921C106.342 298.44 106.251 297.885 106.251 297.255C106.251 296.765 106.33 296.305 106.489 295.876C106.648 295.442 106.874 295.066 107.168 294.749C107.467 294.427 107.828 294.173 108.253 293.986C108.682 293.799 109.165 293.706 109.702 293.706C110.155 293.706 110.572 293.778 110.955 293.923C111.338 294.068 111.667 294.28 111.942 294.56C112.217 294.835 112.432 295.176 112.586 295.582C112.745 295.983 112.824 296.443 112.824 296.961C112.824 297.222 112.796 297.4 112.74 297.493C112.684 297.582 112.577 297.626 112.418 297.626H107.973ZM115.753 295.064C115.977 294.635 116.243 294.299 116.551 294.056C116.859 293.809 117.223 293.685 117.643 293.685C117.974 293.685 118.24 293.757 118.441 293.902L118.329 295.197C118.305 295.281 118.27 295.342 118.224 295.379C118.182 295.412 118.123 295.428 118.049 295.428C117.979 295.428 117.874 295.416 117.734 295.393C117.598 295.37 117.465 295.358 117.335 295.358C117.143 295.358 116.973 295.386 116.824 295.442C116.674 295.498 116.539 295.58 116.418 295.687C116.301 295.79 116.196 295.916 116.103 296.065C116.014 296.214 115.93 296.385 115.851 296.576V301H114.122V293.818H115.137C115.314 293.818 115.438 293.851 115.508 293.916C115.578 293.977 115.624 294.089 115.648 294.252L115.753 295.064ZM123.699 295.218C123.652 295.293 123.603 295.346 123.552 295.379C123.501 295.407 123.435 295.421 123.356 295.421C123.272 295.421 123.181 295.398 123.083 295.351C122.99 295.304 122.88 295.253 122.754 295.197C122.628 295.136 122.483 295.083 122.32 295.036C122.161 294.989 121.972 294.966 121.753 294.966C121.412 294.966 121.144 295.038 120.948 295.183C120.757 295.328 120.661 295.517 120.661 295.75C120.661 295.904 120.71 296.035 120.808 296.142C120.911 296.245 121.044 296.336 121.207 296.415C121.375 296.494 121.564 296.567 121.774 296.632C121.984 296.693 122.196 296.76 122.411 296.835C122.63 296.91 122.845 296.996 123.055 297.094C123.265 297.187 123.452 297.309 123.615 297.458C123.783 297.603 123.916 297.778 124.014 297.983C124.117 298.188 124.168 298.436 124.168 298.725C124.168 299.07 124.105 299.39 123.979 299.684C123.858 299.973 123.676 300.225 123.433 300.44C123.19 300.65 122.889 300.816 122.53 300.937C122.175 301.054 121.765 301.112 121.298 301.112C121.051 301.112 120.808 301.089 120.57 301.042C120.337 301 120.11 300.939 119.891 300.86C119.676 300.781 119.476 300.687 119.289 300.58C119.107 300.473 118.946 300.356 118.806 300.23L119.205 299.572C119.256 299.493 119.317 299.432 119.387 299.39C119.457 299.348 119.546 299.327 119.653 299.327C119.76 299.327 119.861 299.357 119.954 299.418C120.052 299.479 120.164 299.544 120.29 299.614C120.416 299.684 120.563 299.749 120.731 299.81C120.904 299.871 121.121 299.901 121.382 299.901C121.587 299.901 121.762 299.878 121.907 299.831C122.056 299.78 122.178 299.714 122.271 299.635C122.369 299.556 122.439 299.465 122.481 299.362C122.528 299.255 122.551 299.145 122.551 299.033C122.551 298.865 122.5 298.727 122.397 298.62C122.299 298.513 122.166 298.419 121.998 298.34C121.835 298.261 121.646 298.191 121.431 298.13C121.221 298.065 121.004 297.995 120.78 297.92C120.561 297.845 120.344 297.759 120.129 297.661C119.919 297.558 119.73 297.43 119.562 297.276C119.399 297.122 119.266 296.933 119.163 296.709C119.065 296.485 119.016 296.214 119.016 295.897C119.016 295.603 119.074 295.323 119.191 295.057C119.308 294.791 119.478 294.56 119.702 294.364C119.931 294.163 120.213 294.005 120.549 293.888C120.89 293.767 121.282 293.706 121.725 293.706C122.22 293.706 122.67 293.788 123.076 293.951C123.482 294.114 123.82 294.329 124.091 294.595L123.699 295.218Z" fill="white"/>
</svg>
