<svg width="204" height="392" viewBox="0 0 204 392" fill="none" xmlns="http://www.w3.org/2000/svg">
<rect y="26" width="204" height="366" rx="20" fill="white"/>
<rect x="67" width="70" height="37" rx="10" fill="white"/>
<path d="M0 46C0 34.9543 8.95431 26 20 26H184C195.046 26 204 34.9543 204 46V127H0V46Z" fill="#F13535"/>
<path d="M88.8996 68.699C88.9696 68.2137 89.1049 67.789 89.3056 67.425C89.5062 67.0563 89.7559 66.7507 90.0546 66.508C90.3579 66.2607 90.7032 66.0763 91.0906 65.955C91.4826 65.829 91.9026 65.766 92.3506 65.766C92.8172 65.766 93.2372 65.8337 93.6106 65.969C93.9886 66.0997 94.3106 66.284 94.5766 66.522C94.8426 66.7553 95.0456 67.0307 95.1856 67.348C95.3302 67.6653 95.4026 68.0083 95.4026 68.377C95.4026 68.699 95.3652 68.9837 95.2906 69.231C95.2206 69.4737 95.1179 69.686 94.9826 69.868C94.8472 70.05 94.6792 70.204 94.4786 70.33C94.2779 70.456 94.0516 70.561 93.7996 70.645C94.4062 70.8363 94.8589 71.128 95.1576 71.52C95.4562 71.912 95.6056 72.4043 95.6056 72.997C95.6056 73.501 95.5122 73.9467 95.3256 74.334C95.1389 74.7213 94.8869 75.048 94.5696 75.314C94.2522 75.5753 93.8836 75.7737 93.4636 75.909C93.0482 76.0443 92.6072 76.112 92.1406 76.112C91.6319 76.112 91.1886 76.0537 90.8106 75.937C90.4326 75.8203 90.1036 75.6477 89.8236 75.419C89.5436 75.1903 89.3056 74.9103 89.1096 74.579C88.9136 74.2477 88.7456 73.865 88.6056 73.431L89.3686 73.116C89.5692 73.032 89.7559 73.011 89.9286 73.053C90.1059 73.0903 90.2342 73.1837 90.3136 73.333C90.3976 73.4963 90.4886 73.6573 90.5866 73.816C90.6892 73.9747 90.8106 74.117 90.9506 74.243C91.0906 74.3643 91.2539 74.4647 91.4406 74.544C91.6319 74.6187 91.8582 74.656 92.1196 74.656C92.4136 74.656 92.6702 74.6093 92.8896 74.516C93.1089 74.418 93.2909 74.292 93.4356 74.138C93.5849 73.984 93.6946 73.8137 93.7646 73.627C93.8392 73.4357 93.8766 73.2443 93.8766 73.053C93.8766 72.8103 93.8509 72.591 93.7996 72.395C93.7482 72.1943 93.6409 72.024 93.4776 71.884C93.3142 71.744 93.0786 71.6343 92.7706 71.555C92.4672 71.4757 92.0589 71.436 91.5456 71.436V70.204C91.9702 70.1993 92.3226 70.1597 92.6026 70.085C92.8826 70.0103 93.1042 69.9077 93.2676 69.777C93.4356 69.6417 93.5522 69.4807 93.6176 69.294C93.6829 69.1073 93.7156 68.902 93.7156 68.678C93.7156 68.202 93.5826 67.8403 93.3166 67.593C93.0506 67.3457 92.6959 67.222 92.2526 67.222C92.0472 67.222 91.8582 67.2523 91.6856 67.313C91.5129 67.369 91.3566 67.4507 91.2166 67.558C91.0812 67.6607 90.9669 67.782 90.8736 67.922C90.7802 68.062 90.7102 68.216 90.6636 68.384C90.5842 68.5987 90.4792 68.741 90.3486 68.811C90.2226 68.881 90.0429 68.8973 89.8096 68.86L88.8996 68.699ZM104.035 70.939C104.035 71.821 103.939 72.5887 103.748 73.242C103.561 73.8907 103.3 74.4273 102.964 74.852C102.632 75.2767 102.238 75.594 101.781 75.804C101.328 76.0093 100.838 76.112 100.311 76.112C99.7833 76.112 99.2933 76.0093 98.8406 75.804C98.3926 75.594 98.003 75.2767 97.6716 74.852C97.3403 74.4273 97.0813 73.8907 96.8946 73.242C96.708 72.5887 96.6146 71.821 96.6146 70.939C96.6146 70.0523 96.708 69.2847 96.8946 68.636C97.0813 67.9873 97.3403 67.4507 97.6716 67.026C98.003 66.6013 98.3926 66.2863 98.8406 66.081C99.2933 65.871 99.7833 65.766 100.311 65.766C100.838 65.766 101.328 65.871 101.781 66.081C102.238 66.2863 102.632 66.6013 102.964 67.026C103.3 67.4507 103.561 67.9873 103.748 68.636C103.939 69.2847 104.035 70.0523 104.035 70.939ZM102.25 70.939C102.25 70.2063 102.196 69.5997 102.089 69.119C101.981 68.6383 101.837 68.2557 101.655 67.971C101.477 67.6863 101.272 67.488 101.039 67.376C100.805 67.2593 100.563 67.201 100.311 67.201C100.063 67.201 99.823 67.2593 99.5896 67.376C99.361 67.488 99.158 67.6863 98.9806 67.971C98.8033 68.2557 98.661 68.6383 98.5536 69.119C98.451 69.5997 98.3996 70.2063 98.3996 70.939C98.3996 71.6717 98.451 72.2783 98.5536 72.759C98.661 73.2397 98.8033 73.6223 98.9806 73.907C99.158 74.1917 99.361 74.3923 99.5896 74.509C99.823 74.621 100.063 74.677 100.311 74.677C100.563 74.677 100.805 74.621 101.039 74.509C101.272 74.3923 101.477 74.1917 101.655 73.907C101.837 73.6223 101.981 73.2397 102.089 72.759C102.196 72.2783 102.25 71.6717 102.25 70.939ZM109.601 68.328C109.601 68.7107 109.535 69.056 109.405 69.364C109.279 69.672 109.108 69.9357 108.894 70.155C108.679 70.3697 108.429 70.5353 108.145 70.652C107.86 70.7687 107.564 70.827 107.256 70.827C106.92 70.827 106.609 70.7687 106.325 70.652C106.04 70.5353 105.793 70.3697 105.583 70.155C105.377 69.9357 105.216 69.672 105.1 69.364C104.983 69.056 104.925 68.7107 104.925 68.328C104.925 67.936 104.983 67.5813 105.1 67.264C105.216 66.9467 105.377 66.6783 105.583 66.459C105.793 66.2397 106.04 66.0717 106.325 65.955C106.609 65.8337 106.92 65.773 107.256 65.773C107.592 65.773 107.902 65.8337 108.187 65.955C108.476 66.0717 108.726 66.2397 108.936 66.459C109.146 66.6783 109.309 66.9467 109.426 67.264C109.542 67.5813 109.601 67.936 109.601 68.328ZM108.271 68.328C108.271 68.0573 108.243 67.831 108.187 67.649C108.135 67.467 108.063 67.32 107.97 67.208C107.881 67.096 107.774 67.0167 107.648 66.97C107.526 66.9187 107.396 66.893 107.256 66.893C107.116 66.893 106.985 66.9187 106.864 66.97C106.742 67.0167 106.637 67.096 106.549 67.208C106.465 67.32 106.397 67.467 106.346 67.649C106.294 67.831 106.269 68.0573 106.269 68.328C106.269 68.5893 106.294 68.8087 106.346 68.986C106.397 69.1587 106.465 69.2987 106.549 69.406C106.637 69.5133 106.742 69.5903 106.864 69.637C106.985 69.6837 107.116 69.707 107.256 69.707C107.396 69.707 107.526 69.6837 107.648 69.637C107.774 69.5903 107.881 69.5133 107.97 69.406C108.063 69.2987 108.135 69.1587 108.187 68.986C108.243 68.8087 108.271 68.5893 108.271 68.328ZM112.968 66.151C113.028 66.081 113.098 66.018 113.178 65.962C113.262 65.906 113.378 65.878 113.528 65.878H114.788L107.27 75.741C107.209 75.8157 107.137 75.8787 107.053 75.93C106.969 75.9767 106.866 76 106.745 76H105.457L112.968 66.151ZM115.32 73.62C115.32 74.0027 115.254 74.348 115.124 74.656C114.998 74.964 114.827 75.2277 114.613 75.447C114.398 75.6617 114.148 75.8297 113.864 75.951C113.579 76.0677 113.283 76.126 112.975 76.126C112.639 76.126 112.328 76.0677 112.044 75.951C111.759 75.8297 111.512 75.6617 111.302 75.447C111.096 75.2277 110.935 74.964 110.819 74.656C110.702 74.348 110.644 74.0027 110.644 73.62C110.644 73.228 110.702 72.8733 110.819 72.556C110.935 72.2387 111.096 71.9703 111.302 71.751C111.512 71.5317 111.759 71.3637 112.044 71.247C112.328 71.1257 112.639 71.065 112.975 71.065C113.311 71.065 113.621 71.1257 113.906 71.247C114.195 71.3637 114.442 71.5317 114.648 71.751C114.858 71.9703 115.021 72.2387 115.138 72.556C115.259 72.8733 115.32 73.228 115.32 73.62ZM113.983 73.62C113.983 73.3493 113.957 73.123 113.906 72.941C113.854 72.759 113.782 72.612 113.689 72.5C113.6 72.388 113.493 72.3087 113.367 72.262C113.245 72.2107 113.115 72.185 112.975 72.185C112.835 72.185 112.704 72.2107 112.583 72.262C112.461 72.3087 112.356 72.388 112.268 72.5C112.179 72.612 112.109 72.759 112.058 72.941C112.011 73.123 111.988 73.3493 111.988 73.62C111.988 73.8813 112.011 74.1007 112.058 74.278C112.109 74.4553 112.179 74.5977 112.268 74.705C112.356 74.8123 112.461 74.8893 112.583 74.936C112.704 74.9827 112.835 75.006 112.975 75.006C113.115 75.006 113.245 74.9827 113.367 74.936C113.493 74.8893 113.6 74.8123 113.689 74.705C113.782 74.5977 113.854 74.4553 113.906 74.278C113.957 74.1007 113.983 73.8813 113.983 73.62ZM98.234 89.402C98.234 89.9713 98.164 90.4847 98.024 90.942C97.884 91.3993 97.674 91.789 97.394 92.111C97.1187 92.433 96.7733 92.6803 96.358 92.853C95.9427 93.0257 95.4597 93.112 94.909 93.112C94.657 93.112 94.4097 93.0957 94.167 93.063C93.9243 93.035 93.67 92.9883 93.404 92.923C93.418 92.7363 93.4343 92.5497 93.453 92.363C93.4717 92.1763 93.488 91.9897 93.502 91.803C93.516 91.7003 93.5557 91.6187 93.621 91.558C93.691 91.4927 93.789 91.46 93.915 91.46C93.9943 91.46 94.097 91.4763 94.223 91.509C94.3537 91.5417 94.517 91.558 94.713 91.558C94.979 91.558 95.2147 91.5207 95.42 91.446C95.6253 91.3667 95.7957 91.243 95.931 91.075C96.071 90.907 96.176 90.69 96.246 90.424C96.316 90.1533 96.351 89.8267 96.351 89.444V82.878H98.234V89.402ZM101.802 85.818V93H100.066V85.818H101.802ZM102.04 83.725C102.04 83.8743 102.01 84.0143 101.949 84.145C101.889 84.2757 101.807 84.39 101.704 84.488C101.606 84.586 101.49 84.6653 101.354 84.726C101.219 84.782 101.074 84.81 100.92 84.81C100.771 84.81 100.629 84.782 100.493 84.726C100.363 84.6653 100.248 84.586 100.15 84.488C100.052 84.39 99.9729 84.2757 99.9123 84.145C99.8563 84.0143 99.8283 83.8743 99.8283 83.725C99.8283 83.571 99.8563 83.4263 99.9123 83.291C99.9729 83.1557 100.052 83.039 100.15 82.941C100.248 82.843 100.363 82.766 100.493 82.71C100.629 82.6493 100.771 82.619 100.92 82.619C101.074 82.619 101.219 82.6493 101.354 82.71C101.49 82.766 101.606 82.843 101.704 82.941C101.807 83.039 101.889 83.1557 101.949 83.291C102.01 83.4263 102.04 83.571 102.04 83.725ZM106.743 85.706C107.275 85.706 107.758 85.7923 108.192 85.965C108.631 86.1377 109.004 86.3827 109.312 86.7C109.625 87.0173 109.865 87.4047 110.033 87.862C110.201 88.3193 110.285 88.8303 110.285 89.395C110.285 89.9643 110.201 90.4777 110.033 90.935C109.865 91.3923 109.625 91.782 109.312 92.104C109.004 92.426 108.631 92.6733 108.192 92.846C107.758 93.0187 107.275 93.105 106.743 93.105C106.206 93.105 105.719 93.0187 105.28 92.846C104.841 92.6733 104.466 92.426 104.153 92.104C103.845 91.782 103.605 91.3923 103.432 90.935C103.264 90.4777 103.18 89.9643 103.18 89.395C103.18 88.8303 103.264 88.3193 103.432 87.862C103.605 87.4047 103.845 87.0173 104.153 86.7C104.466 86.3827 104.841 86.1377 105.28 85.965C105.719 85.7923 106.206 85.706 106.743 85.706ZM106.743 91.775C107.34 91.775 107.781 91.5743 108.066 91.173C108.355 90.7717 108.5 90.1837 108.5 89.409C108.5 88.6343 108.355 88.044 108.066 87.638C107.781 87.232 107.34 87.029 106.743 87.029C106.136 87.029 105.686 87.2343 105.392 87.645C105.103 88.051 104.958 88.639 104.958 89.409C104.958 90.179 105.103 90.767 105.392 91.173C105.686 91.5743 106.136 91.775 106.743 91.775Z" fill="white"/>
<rect y="127" width="204" height="83" fill="#82D8F3"/>
<path d="M0 210H204V372C204 383.046 195.046 392 184 392H20C8.9543 392 0 383.046 0 372V210Z" fill="#AD82F3"/>
<path d="M89.3996 157.699C89.4696 157.214 89.6049 156.789 89.8056 156.425C90.0062 156.056 90.2559 155.751 90.5546 155.508C90.8579 155.261 91.2032 155.076 91.5906 154.955C91.9826 154.829 92.4026 154.766 92.8506 154.766C93.3172 154.766 93.7372 154.834 94.1106 154.969C94.4886 155.1 94.8106 155.284 95.0766 155.522C95.3426 155.755 95.5456 156.031 95.6856 156.348C95.8302 156.665 95.9026 157.008 95.9026 157.377C95.9026 157.699 95.8652 157.984 95.7906 158.231C95.7206 158.474 95.6179 158.686 95.4826 158.868C95.3472 159.05 95.1792 159.204 94.9786 159.33C94.7779 159.456 94.5516 159.561 94.2996 159.645C94.9062 159.836 95.3589 160.128 95.6576 160.52C95.9562 160.912 96.1056 161.404 96.1056 161.997C96.1056 162.501 96.0122 162.947 95.8256 163.334C95.6389 163.721 95.3869 164.048 95.0696 164.314C94.7522 164.575 94.3836 164.774 93.9636 164.909C93.5482 165.044 93.1072 165.112 92.6406 165.112C92.1319 165.112 91.6886 165.054 91.3106 164.937C90.9326 164.82 90.6036 164.648 90.3236 164.419C90.0436 164.19 89.8056 163.91 89.6096 163.579C89.4136 163.248 89.2456 162.865 89.1056 162.431L89.8686 162.116C90.0692 162.032 90.2559 162.011 90.4286 162.053C90.6059 162.09 90.7342 162.184 90.8136 162.333C90.8976 162.496 90.9886 162.657 91.0866 162.816C91.1892 162.975 91.3106 163.117 91.4506 163.243C91.5906 163.364 91.7539 163.465 91.9406 163.544C92.1319 163.619 92.3582 163.656 92.6196 163.656C92.9136 163.656 93.1702 163.609 93.3896 163.516C93.6089 163.418 93.7909 163.292 93.9356 163.138C94.0849 162.984 94.1946 162.814 94.2646 162.627C94.3392 162.436 94.3766 162.244 94.3766 162.053C94.3766 161.81 94.3509 161.591 94.2996 161.395C94.2482 161.194 94.1409 161.024 93.9776 160.884C93.8142 160.744 93.5786 160.634 93.2706 160.555C92.9672 160.476 92.5589 160.436 92.0456 160.436V159.204C92.4702 159.199 92.8226 159.16 93.1026 159.085C93.3826 159.01 93.6042 158.908 93.7676 158.777C93.9356 158.642 94.0522 158.481 94.1176 158.294C94.1829 158.107 94.2156 157.902 94.2156 157.678C94.2156 157.202 94.0826 156.84 93.8166 156.593C93.5506 156.346 93.1959 156.222 92.7526 156.222C92.5472 156.222 92.3582 156.252 92.1856 156.313C92.0129 156.369 91.8566 156.451 91.7166 156.558C91.5812 156.661 91.4669 156.782 91.3736 156.922C91.2802 157.062 91.2102 157.216 91.1636 157.384C91.0842 157.599 90.9792 157.741 90.8486 157.811C90.7226 157.881 90.5429 157.897 90.3096 157.86L89.3996 157.699ZM104.535 159.939C104.535 160.821 104.439 161.589 104.248 162.242C104.061 162.891 103.8 163.427 103.464 163.852C103.132 164.277 102.738 164.594 102.281 164.804C101.828 165.009 101.338 165.112 100.811 165.112C100.283 165.112 99.7933 165.009 99.3406 164.804C98.8926 164.594 98.503 164.277 98.1716 163.852C97.8403 163.427 97.5813 162.891 97.3946 162.242C97.208 161.589 97.1146 160.821 97.1146 159.939C97.1146 159.052 97.208 158.285 97.3946 157.636C97.5813 156.987 97.8403 156.451 98.1716 156.026C98.503 155.601 98.8926 155.286 99.3406 155.081C99.7933 154.871 100.283 154.766 100.811 154.766C101.338 154.766 101.828 154.871 102.281 155.081C102.738 155.286 103.132 155.601 103.464 156.026C103.8 156.451 104.061 156.987 104.248 157.636C104.439 158.285 104.535 159.052 104.535 159.939ZM102.75 159.939C102.75 159.206 102.696 158.6 102.589 158.119C102.481 157.638 102.337 157.256 102.155 156.971C101.977 156.686 101.772 156.488 101.539 156.376C101.305 156.259 101.063 156.201 100.811 156.201C100.563 156.201 100.323 156.259 100.09 156.376C99.861 156.488 99.658 156.686 99.4806 156.971C99.3033 157.256 99.161 157.638 99.0536 158.119C98.951 158.6 98.8996 159.206 98.8996 159.939C98.8996 160.672 98.951 161.278 99.0536 161.759C99.161 162.24 99.3033 162.622 99.4806 162.907C99.658 163.192 99.861 163.392 100.09 163.509C100.323 163.621 100.563 163.677 100.811 163.677C101.063 163.677 101.305 163.621 101.539 163.509C101.772 163.392 101.977 163.192 102.155 162.907C102.337 162.622 102.481 162.24 102.589 161.759C102.696 161.278 102.75 160.672 102.75 159.939ZM110.101 157.328C110.101 157.711 110.035 158.056 109.905 158.364C109.779 158.672 109.608 158.936 109.394 159.155C109.179 159.37 108.929 159.535 108.645 159.652C108.36 159.769 108.064 159.827 107.756 159.827C107.42 159.827 107.109 159.769 106.825 159.652C106.54 159.535 106.293 159.37 106.083 159.155C105.877 158.936 105.716 158.672 105.6 158.364C105.483 158.056 105.425 157.711 105.425 157.328C105.425 156.936 105.483 156.581 105.6 156.264C105.716 155.947 105.877 155.678 106.083 155.459C106.293 155.24 106.54 155.072 106.825 154.955C107.109 154.834 107.42 154.773 107.756 154.773C108.092 154.773 108.402 154.834 108.687 154.955C108.976 155.072 109.226 155.24 109.436 155.459C109.646 155.678 109.809 155.947 109.926 156.264C110.042 156.581 110.101 156.936 110.101 157.328ZM108.771 157.328C108.771 157.057 108.743 156.831 108.687 156.649C108.635 156.467 108.563 156.32 108.47 156.208C108.381 156.096 108.274 156.017 108.148 155.97C108.026 155.919 107.896 155.893 107.756 155.893C107.616 155.893 107.485 155.919 107.364 155.97C107.242 156.017 107.137 156.096 107.049 156.208C106.965 156.32 106.897 156.467 106.846 156.649C106.794 156.831 106.769 157.057 106.769 157.328C106.769 157.589 106.794 157.809 106.846 157.986C106.897 158.159 106.965 158.299 107.049 158.406C107.137 158.513 107.242 158.59 107.364 158.637C107.485 158.684 107.616 158.707 107.756 158.707C107.896 158.707 108.026 158.684 108.148 158.637C108.274 158.59 108.381 158.513 108.47 158.406C108.563 158.299 108.635 158.159 108.687 157.986C108.743 157.809 108.771 157.589 108.771 157.328ZM113.468 155.151C113.528 155.081 113.598 155.018 113.678 154.962C113.762 154.906 113.878 154.878 114.028 154.878H115.288L107.77 164.741C107.709 164.816 107.637 164.879 107.553 164.93C107.469 164.977 107.366 165 107.245 165H105.957L113.468 155.151ZM115.82 162.62C115.82 163.003 115.754 163.348 115.624 163.656C115.498 163.964 115.327 164.228 115.113 164.447C114.898 164.662 114.648 164.83 114.364 164.951C114.079 165.068 113.783 165.126 113.475 165.126C113.139 165.126 112.828 165.068 112.544 164.951C112.259 164.83 112.012 164.662 111.802 164.447C111.596 164.228 111.435 163.964 111.319 163.656C111.202 163.348 111.144 163.003 111.144 162.62C111.144 162.228 111.202 161.873 111.319 161.556C111.435 161.239 111.596 160.97 111.802 160.751C112.012 160.532 112.259 160.364 112.544 160.247C112.828 160.126 113.139 160.065 113.475 160.065C113.811 160.065 114.121 160.126 114.406 160.247C114.695 160.364 114.942 160.532 115.148 160.751C115.358 160.97 115.521 161.239 115.638 161.556C115.759 161.873 115.82 162.228 115.82 162.62ZM114.483 162.62C114.483 162.349 114.457 162.123 114.406 161.941C114.354 161.759 114.282 161.612 114.189 161.5C114.1 161.388 113.993 161.309 113.867 161.262C113.745 161.211 113.615 161.185 113.475 161.185C113.335 161.185 113.204 161.211 113.083 161.262C112.961 161.309 112.856 161.388 112.768 161.5C112.679 161.612 112.609 161.759 112.558 161.941C112.511 162.123 112.488 162.349 112.488 162.62C112.488 162.881 112.511 163.101 112.558 163.278C112.609 163.455 112.679 163.598 112.768 163.705C112.856 163.812 112.961 163.889 113.083 163.936C113.204 163.983 113.335 164.006 113.475 164.006C113.615 164.006 113.745 163.983 113.867 163.936C113.993 163.889 114.1 163.812 114.189 163.705C114.282 163.598 114.354 163.455 114.406 163.278C114.457 163.101 114.483 162.881 114.483 162.62ZM81.5844 173.719C81.5284 173.817 81.4677 173.889 81.4024 173.936C81.3417 173.978 81.2647 173.999 81.1714 173.999C81.0734 173.999 80.966 173.964 80.8494 173.894C80.7374 173.819 80.602 173.738 80.4434 173.649C80.2847 173.56 80.098 173.481 79.8834 173.411C79.6734 173.336 79.4237 173.299 79.1344 173.299C78.873 173.299 78.6444 173.332 78.4484 173.397C78.2524 173.458 78.0867 173.544 77.9514 173.656C77.8207 173.768 77.7227 173.903 77.6574 174.062C77.592 174.216 77.5594 174.386 77.5594 174.573C77.5594 174.811 77.6247 175.009 77.7554 175.168C77.8907 175.327 78.068 175.462 78.2874 175.574C78.5067 175.686 78.7564 175.786 79.0364 175.875C79.3164 175.964 79.6034 176.059 79.8974 176.162C80.1914 176.26 80.4784 176.377 80.7584 176.512C81.0384 176.643 81.288 176.811 81.5074 177.016C81.7267 177.217 81.9017 177.464 82.0324 177.758C82.1677 178.052 82.2354 178.409 82.2354 178.829C82.2354 179.286 82.156 179.716 81.9974 180.117C81.8434 180.514 81.6147 180.861 81.3114 181.16C81.0127 181.454 80.6464 181.687 80.2124 181.86C79.7784 182.028 79.2814 182.112 78.7214 182.112C78.3994 182.112 78.082 182.079 77.7694 182.014C77.4567 181.953 77.1557 181.865 76.8664 181.748C76.5817 181.631 76.3134 181.491 76.0614 181.328C75.8094 181.165 75.5854 180.983 75.3894 180.782L75.9424 179.879C75.989 179.814 76.0497 179.76 76.1244 179.718C76.199 179.671 76.2784 179.648 76.3624 179.648C76.479 179.648 76.605 179.697 76.7404 179.795C76.8757 179.888 77.0367 179.993 77.2234 180.11C77.41 180.227 77.627 180.334 77.8744 180.432C78.1264 180.525 78.4274 180.572 78.7774 180.572C79.314 180.572 79.7294 180.446 80.0234 180.194C80.3174 179.937 80.4644 179.571 80.4644 179.095C80.4644 178.829 80.3967 178.612 80.2614 178.444C80.1307 178.276 79.9557 178.136 79.7364 178.024C79.517 177.907 79.2674 177.809 78.9874 177.73C78.7074 177.651 78.4227 177.564 78.1334 177.471C77.844 177.378 77.5594 177.266 77.2794 177.135C76.9994 177.004 76.7497 176.834 76.5304 176.624C76.311 176.414 76.1337 176.153 75.9984 175.84C75.8677 175.523 75.8024 175.133 75.8024 174.671C75.8024 174.302 75.8747 173.943 76.0194 173.593C76.1687 173.243 76.3834 172.933 76.6634 172.662C76.9434 172.391 77.2887 172.174 77.6994 172.011C78.11 171.848 78.5814 171.766 79.1134 171.766C79.7107 171.766 80.2614 171.859 80.7654 172.046C81.2694 172.233 81.6987 172.494 82.0534 172.83L81.5844 173.719ZM89.6699 174.818V182H88.6129C88.3843 182 88.2396 181.895 88.1789 181.685L88.0599 181.111C87.7659 181.41 87.4416 181.652 87.0869 181.839C86.7323 182.021 86.3146 182.112 85.8339 182.112C85.4419 182.112 85.0943 182.047 84.7909 181.916C84.4923 181.781 84.2403 181.592 84.0349 181.349C83.8296 181.106 83.6733 180.819 83.5659 180.488C83.4633 180.152 83.4119 179.783 83.4119 179.382V174.818H85.1409V179.382C85.1409 179.821 85.2413 180.161 85.4419 180.404C85.6473 180.642 85.9529 180.761 86.3589 180.761C86.6576 180.761 86.9376 180.696 87.1989 180.565C87.4603 180.43 87.7076 180.245 87.9409 180.012V174.818H89.6699ZM93.1133 180.138C93.3093 180.376 93.5216 180.544 93.7503 180.642C93.9836 180.74 94.2356 180.789 94.5063 180.789C94.7676 180.789 95.0033 180.74 95.2133 180.642C95.4233 180.544 95.6006 180.395 95.7453 180.194C95.8946 179.993 96.0089 179.741 96.0883 179.438C96.1676 179.13 96.2073 178.768 96.2073 178.353C96.2073 177.933 96.1723 177.578 96.1023 177.289C96.0369 176.995 95.9413 176.757 95.8153 176.575C95.6893 176.393 95.5353 176.26 95.3533 176.176C95.1759 176.092 94.9729 176.05 94.7443 176.05C94.3849 176.05 94.0793 176.127 93.8273 176.281C93.5753 176.43 93.3373 176.643 93.1133 176.918V180.138ZM93.0223 175.798C93.3163 175.467 93.6499 175.198 94.0233 174.993C94.3966 174.788 94.8353 174.685 95.3393 174.685C95.7313 174.685 96.0883 174.767 96.4103 174.93C96.7369 175.093 97.0169 175.331 97.2503 175.644C97.4883 175.952 97.6703 176.335 97.7963 176.792C97.9269 177.245 97.9923 177.765 97.9923 178.353C97.9923 178.89 97.9199 179.387 97.7753 179.844C97.6306 180.301 97.4229 180.698 97.1523 181.034C96.8863 181.37 96.5619 181.634 96.1793 181.825C95.8013 182.012 95.3766 182.105 94.9053 182.105C94.5039 182.105 94.1609 182.044 93.8763 181.923C93.5916 181.797 93.3373 181.624 93.1133 181.405V184.345H91.3843V174.818H92.4413C92.6653 174.818 92.8123 174.923 92.8823 175.133L93.0223 175.798ZM103.968 177.583C103.968 177.359 103.936 177.149 103.87 176.953C103.81 176.752 103.716 176.577 103.59 176.428C103.464 176.279 103.303 176.162 103.107 176.078C102.916 175.989 102.692 175.945 102.435 175.945C101.936 175.945 101.542 176.087 101.252 176.372C100.968 176.657 100.786 177.06 100.706 177.583H103.968ZM100.671 178.626C100.699 178.995 100.765 179.314 100.867 179.585C100.97 179.851 101.105 180.073 101.273 180.25C101.441 180.423 101.64 180.553 101.868 180.642C102.102 180.726 102.358 180.768 102.638 180.768C102.918 180.768 103.159 180.735 103.359 180.67C103.565 180.605 103.742 180.532 103.891 180.453C104.045 180.374 104.178 180.301 104.29 180.236C104.407 180.171 104.519 180.138 104.626 180.138C104.771 180.138 104.878 180.192 104.948 180.299L105.445 180.929C105.254 181.153 105.039 181.342 104.801 181.496C104.563 181.645 104.314 181.767 104.052 181.86C103.796 181.949 103.532 182.012 103.261 182.049C102.995 182.086 102.736 182.105 102.484 182.105C101.985 182.105 101.521 182.023 101.091 181.86C100.662 181.692 100.289 181.447 99.9713 181.125C99.654 180.798 99.4043 180.397 99.2223 179.921C99.0403 179.44 98.9493 178.885 98.9493 178.255C98.9493 177.765 99.0286 177.305 99.1873 176.876C99.346 176.442 99.5723 176.066 99.8663 175.749C100.165 175.427 100.527 175.173 100.951 174.986C101.381 174.799 101.864 174.706 102.4 174.706C102.853 174.706 103.271 174.778 103.653 174.923C104.036 175.068 104.365 175.28 104.64 175.56C104.916 175.835 105.13 176.176 105.284 176.582C105.443 176.983 105.522 177.443 105.522 177.961C105.522 178.222 105.494 178.4 105.438 178.493C105.382 178.582 105.275 178.626 105.116 178.626H100.671ZM108.451 176.064C108.675 175.635 108.941 175.299 109.249 175.056C109.557 174.809 109.921 174.685 110.341 174.685C110.672 174.685 110.938 174.757 111.139 174.902L111.027 176.197C111.003 176.281 110.968 176.342 110.922 176.379C110.88 176.412 110.821 176.428 110.747 176.428C110.677 176.428 110.572 176.416 110.432 176.393C110.296 176.37 110.163 176.358 110.033 176.358C109.841 176.358 109.671 176.386 109.522 176.442C109.372 176.498 109.237 176.58 109.116 176.687C108.999 176.79 108.894 176.916 108.801 177.065C108.712 177.214 108.628 177.385 108.549 177.576V182H106.82V174.818H107.835C108.012 174.818 108.136 174.851 108.206 174.916C108.276 174.977 108.322 175.089 108.346 175.252L108.451 176.064ZM116.397 176.218C116.35 176.293 116.301 176.346 116.25 176.379C116.199 176.407 116.133 176.421 116.054 176.421C115.97 176.421 115.879 176.398 115.781 176.351C115.688 176.304 115.578 176.253 115.452 176.197C115.326 176.136 115.181 176.083 115.018 176.036C114.859 175.989 114.67 175.966 114.451 175.966C114.11 175.966 113.842 176.038 113.646 176.183C113.455 176.328 113.359 176.517 113.359 176.75C113.359 176.904 113.408 177.035 113.506 177.142C113.609 177.245 113.742 177.336 113.905 177.415C114.073 177.494 114.262 177.567 114.472 177.632C114.682 177.693 114.894 177.76 115.109 177.835C115.328 177.91 115.543 177.996 115.753 178.094C115.963 178.187 116.15 178.309 116.313 178.458C116.481 178.603 116.614 178.778 116.712 178.983C116.815 179.188 116.866 179.436 116.866 179.725C116.866 180.07 116.803 180.39 116.677 180.684C116.556 180.973 116.374 181.225 116.131 181.44C115.888 181.65 115.587 181.816 115.228 181.937C114.873 182.054 114.463 182.112 113.996 182.112C113.749 182.112 113.506 182.089 113.268 182.042C113.035 182 112.808 181.939 112.589 181.86C112.374 181.781 112.174 181.687 111.987 181.58C111.805 181.473 111.644 181.356 111.504 181.23L111.903 180.572C111.954 180.493 112.015 180.432 112.085 180.39C112.155 180.348 112.244 180.327 112.351 180.327C112.458 180.327 112.559 180.357 112.652 180.418C112.75 180.479 112.862 180.544 112.988 180.614C113.114 180.684 113.261 180.749 113.429 180.81C113.602 180.871 113.819 180.901 114.08 180.901C114.285 180.901 114.46 180.878 114.605 180.831C114.754 180.78 114.876 180.714 114.969 180.635C115.067 180.556 115.137 180.465 115.179 180.362C115.226 180.255 115.249 180.145 115.249 180.033C115.249 179.865 115.198 179.727 115.095 179.62C114.997 179.513 114.864 179.419 114.696 179.34C114.533 179.261 114.344 179.191 114.129 179.13C113.919 179.065 113.702 178.995 113.478 178.92C113.259 178.845 113.042 178.759 112.827 178.661C112.617 178.558 112.428 178.43 112.26 178.276C112.097 178.122 111.964 177.933 111.861 177.709C111.763 177.485 111.714 177.214 111.714 176.897C111.714 176.603 111.772 176.323 111.889 176.057C112.006 175.791 112.176 175.56 112.4 175.364C112.629 175.163 112.911 175.005 113.247 174.888C113.588 174.767 113.98 174.706 114.423 174.706C114.918 174.706 115.368 174.788 115.774 174.951C116.18 175.114 116.518 175.329 116.789 175.595L116.397 176.218ZM122.794 177.583C122.794 177.359 122.762 177.149 122.696 176.953C122.636 176.752 122.542 176.577 122.416 176.428C122.29 176.279 122.129 176.162 121.933 176.078C121.742 175.989 121.518 175.945 121.261 175.945C120.762 175.945 120.368 176.087 120.078 176.372C119.794 176.657 119.612 177.06 119.532 177.583H122.794ZM119.497 178.626C119.525 178.995 119.591 179.314 119.693 179.585C119.796 179.851 119.931 180.073 120.099 180.25C120.267 180.423 120.466 180.553 120.694 180.642C120.928 180.726 121.184 180.768 121.464 180.768C121.744 180.768 121.985 180.735 122.185 180.67C122.391 180.605 122.568 180.532 122.717 180.453C122.871 180.374 123.004 180.301 123.116 180.236C123.233 180.171 123.345 180.138 123.452 180.138C123.597 180.138 123.704 180.192 123.774 180.299L124.271 180.929C124.08 181.153 123.865 181.342 123.627 181.496C123.389 181.645 123.14 181.767 122.878 181.86C122.622 181.949 122.358 182.012 122.087 182.049C121.821 182.086 121.562 182.105 121.31 182.105C120.811 182.105 120.347 182.023 119.917 181.86C119.488 181.692 119.115 181.447 118.797 181.125C118.48 180.798 118.23 180.397 118.048 179.921C117.866 179.44 117.775 178.885 117.775 178.255C117.775 177.765 117.855 177.305 118.013 176.876C118.172 176.442 118.398 176.066 118.692 175.749C118.991 175.427 119.353 175.173 119.777 174.986C120.207 174.799 120.69 174.706 121.226 174.706C121.679 174.706 122.097 174.778 122.479 174.923C122.862 175.068 123.191 175.28 123.466 175.56C123.742 175.835 123.956 176.176 124.11 176.582C124.269 176.983 124.348 177.443 124.348 177.961C124.348 178.222 124.32 178.4 124.264 178.493C124.208 178.582 124.101 178.626 123.942 178.626H119.497ZM127.972 182.112C127.346 182.112 126.866 181.937 126.53 181.587C126.198 181.232 126.033 180.745 126.033 180.124V176.113H125.298C125.204 176.113 125.125 176.083 125.06 176.022C124.994 175.961 124.962 175.87 124.962 175.749V175.063L126.117 174.874L126.481 172.914C126.504 172.821 126.548 172.748 126.614 172.697C126.679 172.646 126.763 172.62 126.866 172.62H127.762V174.881H129.68V176.113H127.762V180.005C127.762 180.229 127.815 180.404 127.923 180.53C128.035 180.656 128.186 180.719 128.378 180.719C128.485 180.719 128.574 180.707 128.644 180.684C128.718 180.656 128.781 180.628 128.833 180.6C128.889 180.572 128.938 180.546 128.98 180.523C129.022 180.495 129.064 180.481 129.106 180.481C129.157 180.481 129.199 180.495 129.232 180.523C129.264 180.546 129.299 180.584 129.337 180.635L129.855 181.475C129.603 181.685 129.313 181.844 128.987 181.951C128.66 182.058 128.322 182.112 127.972 182.112Z" fill="white"/>
<path d="M93.1276 280.185V276.874C93.1276 276.561 93.1486 276.216 93.1906 275.838L90.0476 280.185H93.1276ZM95.9066 280.185V281.186C95.9066 281.279 95.8762 281.361 95.8156 281.431C95.7549 281.496 95.6686 281.529 95.5566 281.529H94.6326V284H93.1276V281.529H88.8576C88.7409 281.529 88.6382 281.494 88.5496 281.424C88.4609 281.349 88.4049 281.258 88.3816 281.151L88.1996 280.276L92.9946 273.871H94.6326V280.185H95.9066ZM104.035 278.939C104.035 279.821 103.939 280.589 103.748 281.242C103.561 281.891 103.3 282.427 102.964 282.852C102.632 283.277 102.238 283.594 101.781 283.804C101.328 284.009 100.838 284.112 100.311 284.112C99.7833 284.112 99.2933 284.009 98.8406 283.804C98.3926 283.594 98.003 283.277 97.6716 282.852C97.3403 282.427 97.0813 281.891 96.8946 281.242C96.708 280.589 96.6146 279.821 96.6146 278.939C96.6146 278.052 96.708 277.285 96.8946 276.636C97.0813 275.987 97.3403 275.451 97.6716 275.026C98.003 274.601 98.3926 274.286 98.8406 274.081C99.2933 273.871 99.7833 273.766 100.311 273.766C100.838 273.766 101.328 273.871 101.781 274.081C102.238 274.286 102.632 274.601 102.964 275.026C103.3 275.451 103.561 275.987 103.748 276.636C103.939 277.285 104.035 278.052 104.035 278.939ZM102.25 278.939C102.25 278.206 102.196 277.6 102.089 277.119C101.981 276.638 101.837 276.256 101.655 275.971C101.477 275.686 101.272 275.488 101.039 275.376C100.805 275.259 100.563 275.201 100.311 275.201C100.063 275.201 99.823 275.259 99.5896 275.376C99.361 275.488 99.158 275.686 98.9806 275.971C98.8033 276.256 98.661 276.638 98.5536 277.119C98.451 277.6 98.3996 278.206 98.3996 278.939C98.3996 279.672 98.451 280.278 98.5536 280.759C98.661 281.24 98.8033 281.622 98.9806 281.907C99.158 282.192 99.361 282.392 99.5896 282.509C99.823 282.621 100.063 282.677 100.311 282.677C100.563 282.677 100.805 282.621 101.039 282.509C101.272 282.392 101.477 282.192 101.655 281.907C101.837 281.622 101.981 281.24 102.089 280.759C102.196 280.278 102.25 279.672 102.25 278.939ZM109.601 276.328C109.601 276.711 109.535 277.056 109.405 277.364C109.279 277.672 109.108 277.936 108.894 278.155C108.679 278.37 108.429 278.535 108.145 278.652C107.86 278.769 107.564 278.827 107.256 278.827C106.92 278.827 106.609 278.769 106.325 278.652C106.04 278.535 105.793 278.37 105.583 278.155C105.377 277.936 105.216 277.672 105.1 277.364C104.983 277.056 104.925 276.711 104.925 276.328C104.925 275.936 104.983 275.581 105.1 275.264C105.216 274.947 105.377 274.678 105.583 274.459C105.793 274.24 106.04 274.072 106.325 273.955C106.609 273.834 106.92 273.773 107.256 273.773C107.592 273.773 107.902 273.834 108.187 273.955C108.476 274.072 108.726 274.24 108.936 274.459C109.146 274.678 109.309 274.947 109.426 275.264C109.542 275.581 109.601 275.936 109.601 276.328ZM108.271 276.328C108.271 276.057 108.243 275.831 108.187 275.649C108.135 275.467 108.063 275.32 107.97 275.208C107.881 275.096 107.774 275.017 107.648 274.97C107.526 274.919 107.396 274.893 107.256 274.893C107.116 274.893 106.985 274.919 106.864 274.97C106.742 275.017 106.637 275.096 106.549 275.208C106.465 275.32 106.397 275.467 106.346 275.649C106.294 275.831 106.269 276.057 106.269 276.328C106.269 276.589 106.294 276.809 106.346 276.986C106.397 277.159 106.465 277.299 106.549 277.406C106.637 277.513 106.742 277.59 106.864 277.637C106.985 277.684 107.116 277.707 107.256 277.707C107.396 277.707 107.526 277.684 107.648 277.637C107.774 277.59 107.881 277.513 107.97 277.406C108.063 277.299 108.135 277.159 108.187 276.986C108.243 276.809 108.271 276.589 108.271 276.328ZM112.968 274.151C113.028 274.081 113.098 274.018 113.178 273.962C113.262 273.906 113.378 273.878 113.528 273.878H114.788L107.27 283.741C107.209 283.816 107.137 283.879 107.053 283.93C106.969 283.977 106.866 284 106.745 284H105.457L112.968 274.151ZM115.32 281.62C115.32 282.003 115.254 282.348 115.124 282.656C114.998 282.964 114.827 283.228 114.613 283.447C114.398 283.662 114.148 283.83 113.864 283.951C113.579 284.068 113.283 284.126 112.975 284.126C112.639 284.126 112.328 284.068 112.044 283.951C111.759 283.83 111.512 283.662 111.302 283.447C111.096 283.228 110.935 282.964 110.819 282.656C110.702 282.348 110.644 282.003 110.644 281.62C110.644 281.228 110.702 280.873 110.819 280.556C110.935 280.239 111.096 279.97 111.302 279.751C111.512 279.532 111.759 279.364 112.044 279.247C112.328 279.126 112.639 279.065 112.975 279.065C113.311 279.065 113.621 279.126 113.906 279.247C114.195 279.364 114.442 279.532 114.648 279.751C114.858 279.97 115.021 280.239 115.138 280.556C115.259 280.873 115.32 281.228 115.32 281.62ZM113.983 281.62C113.983 281.349 113.957 281.123 113.906 280.941C113.854 280.759 113.782 280.612 113.689 280.5C113.6 280.388 113.493 280.309 113.367 280.262C113.245 280.211 113.115 280.185 112.975 280.185C112.835 280.185 112.704 280.211 112.583 280.262C112.461 280.309 112.356 280.388 112.268 280.5C112.179 280.612 112.109 280.759 112.058 280.941C112.011 281.123 111.988 281.349 111.988 281.62C111.988 281.881 112.011 282.101 112.058 282.278C112.109 282.455 112.179 282.598 112.268 282.705C112.356 282.812 112.461 282.889 112.583 282.936C112.704 282.983 112.835 283.006 112.975 283.006C113.115 283.006 113.245 282.983 113.367 282.936C113.493 282.889 113.6 282.812 113.689 282.705C113.782 282.598 113.854 282.455 113.906 282.278C113.957 282.101 113.983 281.881 113.983 281.62ZM91.1648 295.939C91.1648 296.681 91.0411 297.369 90.7938 298.004C90.5511 298.634 90.2058 299.18 89.7578 299.642C89.3098 300.104 88.7708 300.466 88.1408 300.727C87.5108 300.984 86.8108 301.112 86.0408 301.112C85.2754 301.112 84.5778 300.984 83.9478 300.727C83.3178 300.466 82.7764 300.104 82.3238 299.642C81.8758 299.18 81.5281 298.634 81.2808 298.004C81.0334 297.369 80.9098 296.681 80.9098 295.939C80.9098 295.197 81.0334 294.511 81.2808 293.881C81.5281 293.246 81.8758 292.698 82.3238 292.236C82.7764 291.774 83.3178 291.415 83.9478 291.158C84.5778 290.897 85.2754 290.766 86.0408 290.766C86.5541 290.766 87.0371 290.827 87.4898 290.948C87.9424 291.065 88.3578 291.233 88.7358 291.452C89.1138 291.667 89.4521 291.93 89.7508 292.243C90.0541 292.551 90.3108 292.896 90.5208 293.279C90.7308 293.662 90.8894 294.077 90.9968 294.525C91.1088 294.973 91.1648 295.444 91.1648 295.939ZM89.2398 295.939C89.2398 295.384 89.1651 294.887 89.0158 294.448C88.8664 294.005 88.6541 293.629 88.3788 293.321C88.1034 293.013 87.7674 292.777 87.3708 292.614C86.9788 292.451 86.5354 292.369 86.0408 292.369C85.5461 292.369 85.1004 292.451 84.7038 292.614C84.3118 292.777 83.9758 293.013 83.6958 293.321C83.4204 293.629 83.2081 294.005 83.0588 294.448C82.9094 294.887 82.8348 295.384 82.8348 295.939C82.8348 296.494 82.9094 296.994 83.0588 297.437C83.2081 297.876 83.4204 298.249 83.6958 298.557C83.9758 298.86 84.3118 299.094 84.7038 299.257C85.1004 299.42 85.5461 299.502 86.0408 299.502C86.5354 299.502 86.9788 299.42 87.3708 299.257C87.7674 299.094 88.1034 298.86 88.3788 298.557C88.6541 298.249 88.8664 297.876 89.0158 297.437C89.1651 296.994 89.2398 296.494 89.2398 295.939ZM94.9257 301.112C94.3004 301.112 93.8197 300.937 93.4837 300.587C93.1524 300.232 92.9867 299.745 92.9867 299.124V295.113H92.2517C92.1584 295.113 92.0791 295.083 92.0137 295.022C91.9484 294.961 91.9157 294.87 91.9157 294.749V294.063L93.0707 293.874L93.4347 291.914C93.4581 291.821 93.5024 291.748 93.5677 291.697C93.6331 291.646 93.7171 291.62 93.8197 291.62H94.7157V293.881H96.6337V295.113H94.7157V299.005C94.7157 299.229 94.7694 299.404 94.8767 299.53C94.9887 299.656 95.1404 299.719 95.3317 299.719C95.4391 299.719 95.5277 299.707 95.5977 299.684C95.6724 299.656 95.7354 299.628 95.7867 299.6C95.8427 299.572 95.8917 299.546 95.9337 299.523C95.9757 299.495 96.0177 299.481 96.0597 299.481C96.1111 299.481 96.1531 299.495 96.1857 299.523C96.2184 299.546 96.2534 299.584 96.2907 299.635L96.8087 300.475C96.5567 300.685 96.2674 300.844 95.9407 300.951C95.6141 301.058 95.2757 301.112 94.9257 301.112ZM99.4697 294.588C99.7497 294.327 100.058 294.114 100.394 293.951C100.73 293.788 101.124 293.706 101.577 293.706C101.969 293.706 102.316 293.774 102.62 293.909C102.923 294.04 103.175 294.226 103.376 294.469C103.581 294.707 103.735 294.994 103.838 295.33C103.945 295.661 103.999 296.028 103.999 296.429V301H102.27V296.429C102.27 295.99 102.169 295.652 101.969 295.414C101.768 295.171 101.462 295.05 101.052 295.05C100.753 295.05 100.473 295.118 100.212 295.253C99.9504 295.388 99.7031 295.573 99.4697 295.806V301H97.7407V290.598H99.4697V294.588ZM110.27 296.583C110.27 296.359 110.237 296.149 110.172 295.953C110.111 295.752 110.018 295.577 109.892 295.428C109.766 295.279 109.605 295.162 109.409 295.078C109.218 294.989 108.994 294.945 108.737 294.945C108.238 294.945 107.843 295.087 107.554 295.372C107.269 295.657 107.087 296.06 107.008 296.583H110.27ZM106.973 297.626C107.001 297.995 107.066 298.314 107.169 298.585C107.272 298.851 107.407 299.073 107.575 299.25C107.743 299.423 107.941 299.553 108.17 299.642C108.403 299.726 108.66 299.768 108.94 299.768C109.22 299.768 109.46 299.735 109.661 299.67C109.866 299.605 110.044 299.532 110.193 299.453C110.347 299.374 110.48 299.301 110.592 299.236C110.709 299.171 110.821 299.138 110.928 299.138C111.073 299.138 111.18 299.192 111.25 299.299L111.747 299.929C111.556 300.153 111.341 300.342 111.103 300.496C110.865 300.645 110.615 300.767 110.354 300.86C110.097 300.949 109.834 301.012 109.563 301.049C109.297 301.086 109.038 301.105 108.786 301.105C108.287 301.105 107.822 301.023 107.393 300.86C106.964 300.692 106.59 300.447 106.273 300.125C105.956 299.798 105.706 299.397 105.524 298.921C105.342 298.44 105.251 297.885 105.251 297.255C105.251 296.765 105.33 296.305 105.489 295.876C105.648 295.442 105.874 295.066 106.168 294.749C106.467 294.427 106.828 294.173 107.253 293.986C107.682 293.799 108.165 293.706 108.702 293.706C109.155 293.706 109.572 293.778 109.955 293.923C110.338 294.068 110.667 294.28 110.942 294.56C111.217 294.835 111.432 295.176 111.586 295.582C111.745 295.983 111.824 296.443 111.824 296.961C111.824 297.222 111.796 297.4 111.74 297.493C111.684 297.582 111.577 297.626 111.418 297.626H106.973ZM114.753 295.064C114.977 294.635 115.243 294.299 115.551 294.056C115.859 293.809 116.223 293.685 116.643 293.685C116.974 293.685 117.24 293.757 117.441 293.902L117.329 295.197C117.305 295.281 117.27 295.342 117.224 295.379C117.182 295.412 117.123 295.428 117.049 295.428C116.979 295.428 116.874 295.416 116.734 295.393C116.598 295.37 116.465 295.358 116.335 295.358C116.143 295.358 115.973 295.386 115.824 295.442C115.674 295.498 115.539 295.58 115.418 295.687C115.301 295.79 115.196 295.916 115.103 296.065C115.014 296.214 114.93 296.385 114.851 296.576V301H113.122V293.818H114.137C114.314 293.818 114.438 293.851 114.508 293.916C114.578 293.977 114.624 294.089 114.648 294.252L114.753 295.064ZM122.699 295.218C122.652 295.293 122.603 295.346 122.552 295.379C122.501 295.407 122.435 295.421 122.356 295.421C122.272 295.421 122.181 295.398 122.083 295.351C121.99 295.304 121.88 295.253 121.754 295.197C121.628 295.136 121.483 295.083 121.32 295.036C121.161 294.989 120.972 294.966 120.753 294.966C120.412 294.966 120.144 295.038 119.948 295.183C119.757 295.328 119.661 295.517 119.661 295.75C119.661 295.904 119.71 296.035 119.808 296.142C119.911 296.245 120.044 296.336 120.207 296.415C120.375 296.494 120.564 296.567 120.774 296.632C120.984 296.693 121.196 296.76 121.411 296.835C121.63 296.91 121.845 296.996 122.055 297.094C122.265 297.187 122.452 297.309 122.615 297.458C122.783 297.603 122.916 297.778 123.014 297.983C123.117 298.188 123.168 298.436 123.168 298.725C123.168 299.07 123.105 299.39 122.979 299.684C122.858 299.973 122.676 300.225 122.433 300.44C122.19 300.65 121.889 300.816 121.53 300.937C121.175 301.054 120.765 301.112 120.298 301.112C120.051 301.112 119.808 301.089 119.57 301.042C119.337 301 119.11 300.939 118.891 300.86C118.676 300.781 118.476 300.687 118.289 300.58C118.107 300.473 117.946 300.356 117.806 300.23L118.205 299.572C118.256 299.493 118.317 299.432 118.387 299.39C118.457 299.348 118.546 299.327 118.653 299.327C118.76 299.327 118.861 299.357 118.954 299.418C119.052 299.479 119.164 299.544 119.29 299.614C119.416 299.684 119.563 299.749 119.731 299.81C119.904 299.871 120.121 299.901 120.382 299.901C120.587 299.901 120.762 299.878 120.907 299.831C121.056 299.78 121.178 299.714 121.271 299.635C121.369 299.556 121.439 299.465 121.481 299.362C121.528 299.255 121.551 299.145 121.551 299.033C121.551 298.865 121.5 298.727 121.397 298.62C121.299 298.513 121.166 298.419 120.998 298.34C120.835 298.261 120.646 298.191 120.431 298.13C120.221 298.065 120.004 297.995 119.78 297.92C119.561 297.845 119.344 297.759 119.129 297.661C118.919 297.558 118.73 297.43 118.562 297.276C118.399 297.122 118.266 296.933 118.163 296.709C118.065 296.485 118.016 296.214 118.016 295.897C118.016 295.603 118.074 295.323 118.191 295.057C118.308 294.791 118.478 294.56 118.702 294.364C118.931 294.163 119.213 294.005 119.549 293.888C119.89 293.767 120.282 293.706 120.725 293.706C121.22 293.706 121.67 293.788 122.076 293.951C122.482 294.114 122.82 294.329 123.091 294.595L122.699 295.218Z" fill="white"/>
</svg>
