<svg width="271" height="271" viewBox="0 0 271 271" fill="none" xmlns="http://www.w3.org/2000/svg">
<g filter="url(#filter0_d)">
<circle cx="135.5" cy="131.5" r="131.5" fill="#2ED15A"/>
</g>
<g filter="url(#filter1_d)">
<circle cx="135.5" cy="131.5" r="95.5" fill="white"/>
<circle cx="135.5" cy="131.5" r="95" stroke="#212121"/>
</g>
<path d="M108.543 112.543V115.609H107.879C105.066 115.661 102.827 116.495 101.16 118.109C99.4935 119.724 98.5299 121.996 98.2695 124.926C99.7669 123.207 101.811 122.348 104.402 122.348C106.876 122.348 108.849 123.22 110.32 124.965C111.805 126.71 112.547 128.962 112.547 131.723C112.547 134.652 111.746 136.996 110.145 138.754C108.556 140.512 106.421 141.391 103.738 141.391C101.017 141.391 98.8099 140.349 97.1172 138.266C95.4245 136.169 94.5781 133.474 94.5781 130.18V128.793C94.5781 123.559 95.6914 119.561 97.918 116.801C100.158 114.027 103.484 112.608 107.898 112.543H108.543ZM103.797 125.355C102.56 125.355 101.421 125.727 100.379 126.469C99.3372 127.211 98.6146 128.142 98.2109 129.262V130.59C98.2109 132.934 98.7383 134.822 99.793 136.254C100.848 137.686 102.163 138.402 103.738 138.402C105.366 138.402 106.642 137.803 107.566 136.605C108.504 135.408 108.973 133.839 108.973 131.898C108.973 129.945 108.497 128.37 107.547 127.172C106.609 125.961 105.359 125.355 103.797 125.355ZM130.672 128.5C129.917 129.398 129.012 130.121 127.957 130.668C126.915 131.215 125.77 131.488 124.52 131.488C122.879 131.488 121.447 131.085 120.223 130.277C119.012 129.47 118.074 128.337 117.41 126.879C116.746 125.408 116.414 123.786 116.414 122.016C116.414 120.115 116.772 118.402 117.488 116.879C118.217 115.355 119.246 114.19 120.574 113.383C121.902 112.576 123.452 112.172 125.223 112.172C128.035 112.172 130.249 113.227 131.863 115.336C133.491 117.432 134.305 120.297 134.305 123.93V124.984C134.305 130.518 133.211 134.561 131.023 137.113C128.836 139.652 125.535 140.954 121.121 141.02H120.418V137.973H121.18C124.161 137.921 126.453 137.146 128.055 135.648C129.656 134.138 130.529 131.755 130.672 128.5ZM125.105 128.5C126.316 128.5 127.43 128.129 128.445 127.387C129.474 126.645 130.223 125.727 130.691 124.633V123.188C130.691 120.818 130.177 118.891 129.148 117.406C128.12 115.922 126.818 115.18 125.242 115.18C123.654 115.18 122.378 115.792 121.414 117.016C120.451 118.227 119.969 119.828 119.969 121.82C119.969 123.76 120.431 125.362 121.355 126.625C122.293 127.875 123.543 128.5 125.105 128.5ZM138.973 118.031C138.973 116.326 139.513 114.919 140.594 113.812C141.688 112.706 143.087 112.152 144.793 112.152C146.525 112.152 147.924 112.712 148.992 113.832C150.073 114.939 150.613 116.378 150.613 118.148V119.535C150.613 121.254 150.066 122.66 148.973 123.754C147.892 124.835 146.512 125.375 144.832 125.375C143.139 125.375 141.74 124.835 140.633 123.754C139.526 122.66 138.973 121.208 138.973 119.398V118.031ZM141.668 119.535C141.668 120.551 141.954 121.391 142.527 122.055C143.1 122.706 143.868 123.031 144.832 123.031C145.757 123.031 146.499 122.712 147.059 122.074C147.632 121.436 147.918 120.564 147.918 119.457V118.031C147.918 117.016 147.638 116.176 147.078 115.512C146.518 114.848 145.757 114.516 144.793 114.516C143.829 114.516 143.068 114.848 142.508 115.512C141.948 116.176 141.668 117.042 141.668 118.109V119.535ZM152.82 134.027C152.82 132.322 153.361 130.922 154.441 129.828C155.535 128.721 156.935 128.168 158.641 128.168C160.346 128.168 161.746 128.715 162.84 129.809C163.934 130.902 164.48 132.354 164.48 134.164V135.551C164.48 137.257 163.934 138.663 162.84 139.77C161.759 140.863 160.372 141.41 158.68 141.41C156.987 141.41 155.587 140.87 154.48 139.789C153.374 138.695 152.82 137.243 152.82 135.434V134.027ZM155.516 135.551C155.516 136.579 155.802 137.426 156.375 138.09C156.948 138.741 157.716 139.066 158.68 139.066C159.617 139.066 160.366 138.747 160.926 138.109C161.486 137.458 161.766 136.579 161.766 135.473V134.027C161.766 132.999 161.479 132.159 160.906 131.508C160.346 130.857 159.591 130.531 158.641 130.531C157.716 130.531 156.961 130.857 156.375 131.508C155.802 132.146 155.516 133.012 155.516 134.105V135.551ZM145.652 138.852L143.602 137.562L157.488 115.336L159.539 116.625L145.652 138.852Z" fill="black"/>
<path d="M45 163C57.8333 152.333 108.7 137.4 137.5 163C173.5 195 219.5 177.5 226.5 163" stroke="black"/>
<defs>
<filter id="filter0_d" x="0" y="0" width="271" height="271" filterUnits="userSpaceOnUse" color-interpolation-filters="sRGB">
<feFlood flood-opacity="0" result="BackgroundImageFix"/>
<feColorMatrix in="SourceAlpha" type="matrix" values="0 0 0 0 0 0 0 0 0 0 0 0 0 0 0 0 0 0 127 0"/>
<feOffset dy="4"/>
<feGaussianBlur stdDeviation="2"/>
<feColorMatrix type="matrix" values="0 0 0 0 0 0 0 0 0 0 0 0 0 0 0 0 0 0 0.25 0"/>
<feBlend mode="normal" in2="BackgroundImageFix" result="effect1_dropShadow"/>
<feBlend mode="normal" in="SourceGraphic" in2="effect1_dropShadow" result="shape"/>
</filter>
<filter id="filter1_d" x="36" y="36" width="199" height="199" filterUnits="userSpaceOnUse" color-interpolation-filters="sRGB">
<feFlood flood-opacity="0" result="BackgroundImageFix"/>
<feColorMatrix in="SourceAlpha" type="matrix" values="0 0 0 0 0 0 0 0 0 0 0 0 0 0 0 0 0 0 127 0"/>
<feOffset dy="4"/>
<feGaussianBlur stdDeviation="2"/>
<feColorMatrix type="matrix" values="0 0 0 0 0 0 0 0 0 0 0 0 0 0 0 0 0 0 0.25 0"/>
<feBlend mode="normal" in2="BackgroundImageFix" result="effect1_dropShadow"/>
<feBlend mode="normal" in="SourceGraphic" in2="effect1_dropShadow" result="shape"/>
</filter>
</defs>
</svg>
