<svg width="273" height="202" viewBox="0 0 273 202" fill="none" xmlns="http://www.w3.org/2000/svg">
<path d="M28 185.5H265" stroke="#C4C4C4"/>
<path d="M30 185.5V0" stroke="#C4C4C4"/>
<path d="M94.5632 141.614L57 131.162V185H247V134.903L212.852 125L184.103 134.903L139.552 131.162L94.5632 141.614Z" fill="url(#paint0_linear)"/>
<path d="M57 130.667L94.5989 142L139.216 130.667L185.338 135.2L214.414 125L247 135.2" stroke="#0EB059" stroke-width="3"/>
<path d="M92.0123 159L57 174V185.5H247V159L220.237 174L169.506 159L130.759 169.421L92.0123 159Z" fill="url(#paint1_linear)"/>
<path d="M179 6H209.5" stroke="#0EB059" stroke-width="2"/>
<path d="M179 17H209.5" stroke="#056114" stroke-width="3" stroke-dasharray="2 5"/>
<path d="M220.106 5.895C220.355 5.895 220.574 5.862 220.763 5.796C220.955 5.73 221.115 5.6385 221.244 5.5215C221.376 5.4015 221.475 5.259 221.541 5.094C221.607 4.929 221.64 4.7475 221.64 4.5495C221.64 4.1385 221.513 3.8175 221.258 3.5865C221.006 3.3555 220.622 3.24 220.106 3.24H219.071V5.895H220.106ZM220.106 2.5515C220.514 2.5515 220.868 2.5995 221.168 2.6955C221.471 2.7885 221.721 2.922 221.919 3.096C222.117 3.27 222.264 3.48 222.36 3.726C222.459 3.972 222.509 4.2465 222.509 4.5495C222.509 4.8495 222.456 5.124 222.351 5.373C222.246 5.622 222.092 5.8365 221.888 6.0165C221.687 6.1965 221.436 6.3375 221.136 6.4395C220.839 6.5385 220.496 6.588 220.106 6.588H219.071V9H218.202V2.5515H220.106ZM225.103 4.3695C225.436 4.3695 225.736 4.425 226.003 4.536C226.27 4.647 226.498 4.8045 226.687 5.0085C226.876 5.2125 227.02 5.46 227.119 5.751C227.221 6.039 227.272 6.3615 227.272 6.7185C227.272 7.0785 227.221 7.4025 227.119 7.6905C227.02 7.9785 226.876 8.2245 226.687 8.4285C226.498 8.6325 226.27 8.79 226.003 8.901C225.736 9.009 225.436 9.063 225.103 9.063C224.767 9.063 224.464 9.009 224.194 8.901C223.927 8.79 223.699 8.6325 223.51 8.4285C223.321 8.2245 223.175 7.9785 223.073 7.6905C222.974 7.4025 222.925 7.0785 222.925 6.7185C222.925 6.3615 222.974 6.039 223.073 5.751C223.175 5.46 223.321 5.2125 223.51 5.0085C223.699 4.8045 223.927 4.647 224.194 4.536C224.464 4.425 224.767 4.3695 225.103 4.3695ZM225.103 8.4375C225.553 8.4375 225.889 8.2875 226.111 7.9875C226.333 7.6845 226.444 7.263 226.444 6.723C226.444 6.18 226.333 5.757 226.111 5.454C225.889 5.151 225.553 4.9995 225.103 4.9995C224.875 4.9995 224.675 5.0385 224.504 5.1165C224.336 5.1945 224.195 5.307 224.081 5.454C223.97 5.601 223.886 5.7825 223.829 5.9985C223.775 6.2115 223.748 6.453 223.748 6.723C223.748 7.263 223.859 7.6845 224.081 7.9875C224.306 8.2875 224.647 8.4375 225.103 8.4375ZM234.504 4.4415L233.028 9H232.394C232.316 9 232.262 8.949 232.232 8.847L231.224 5.7555C231.2 5.6865 231.18 5.6175 231.165 5.5485C231.15 5.4765 231.135 5.406 231.12 5.337C231.105 5.406 231.09 5.4765 231.075 5.5485C231.06 5.6175 231.041 5.688 231.017 5.76L229.991 8.847C229.964 8.949 229.904 9 229.811 9H229.208L227.732 4.4415H228.362C228.425 4.4415 228.477 4.458 228.519 4.491C228.564 4.524 228.594 4.563 228.609 4.608L229.482 7.542C229.533 7.758 229.574 7.962 229.604 8.154C229.631 8.055 229.658 7.9545 229.685 7.8525C229.715 7.7505 229.746 7.647 229.779 7.542L230.742 4.59C230.757 4.545 230.783 4.5075 230.819 4.4775C230.858 4.4475 230.904 4.4325 230.958 4.4325H231.309C231.369 4.4325 231.419 4.4475 231.458 4.4775C231.497 4.5075 231.524 4.545 231.539 4.59L232.479 7.542C232.512 7.647 232.542 7.7505 232.569 7.8525C232.596 7.9545 232.622 8.055 232.646 8.154C232.661 8.055 232.679 7.956 232.7 7.857C232.724 7.755 232.749 7.65 232.776 7.542L233.667 4.608C233.682 4.56 233.711 4.521 233.753 4.491C233.795 4.458 233.844 4.4415 233.901 4.4415H234.504ZM238.273 6.2235C238.273 6.0375 238.246 5.868 238.192 5.715C238.141 5.559 238.065 5.4255 237.963 5.3145C237.864 5.2005 237.742 5.1135 237.598 5.0535C237.454 4.9905 237.291 4.959 237.108 4.959C236.724 4.959 236.419 5.0715 236.194 5.2965C235.972 5.5185 235.834 5.8275 235.78 6.2235H238.273ZM238.921 8.361C238.822 8.481 238.704 8.586 238.566 8.676C238.428 8.763 238.279 8.835 238.12 8.892C237.964 8.949 237.802 8.991 237.634 9.018C237.466 9.048 237.3 9.063 237.135 9.063C236.82 9.063 236.529 9.0105 236.262 8.9055C235.998 8.7975 235.768 8.6415 235.573 8.4375C235.381 8.2305 235.231 7.9755 235.123 7.6725C235.015 7.3695 234.961 7.0215 234.961 6.6285C234.961 6.3105 235.009 6.0135 235.105 5.7375C235.204 5.4615 235.345 5.223 235.528 5.022C235.711 4.818 235.935 4.659 236.199 4.545C236.463 4.428 236.76 4.3695 237.09 4.3695C237.363 4.3695 237.615 4.416 237.846 4.509C238.08 4.599 238.281 4.731 238.449 4.905C238.62 5.076 238.753 5.289 238.849 5.544C238.945 5.796 238.993 6.084 238.993 6.408C238.993 6.534 238.98 6.618 238.953 6.66C238.926 6.702 238.875 6.723 238.8 6.723H235.753C235.762 7.011 235.801 7.2615 235.87 7.4745C235.942 7.6875 236.041 7.866 236.167 8.01C236.293 8.151 236.443 8.2575 236.617 8.3295C236.791 8.3985 236.986 8.433 237.202 8.433C237.403 8.433 237.576 8.4105 237.72 8.3655C237.867 8.3175 237.993 8.2665 238.098 8.2125C238.203 8.1585 238.29 8.109 238.359 8.064C238.431 8.016 238.492 7.992 238.543 7.992C238.609 7.992 238.66 8.0175 238.696 8.0685L238.921 8.361ZM240.738 5.355C240.882 5.043 241.059 4.8 241.269 4.626C241.479 4.449 241.735 4.3605 242.038 4.3605C242.134 4.3605 242.226 4.371 242.313 4.392C242.403 4.413 242.482 4.446 242.551 4.491L242.493 5.0895C242.475 5.1645 242.43 5.202 242.358 5.202C242.316 5.202 242.254 5.193 242.173 5.175C242.092 5.157 242.001 5.148 241.899 5.148C241.755 5.148 241.626 5.169 241.512 5.211C241.401 5.253 241.3 5.316 241.21 5.4C241.123 5.481 241.044 5.583 240.972 5.706C240.903 5.826 240.84 5.964 240.783 6.12V9H239.977V4.4415H240.436C240.523 4.4415 240.583 4.458 240.616 4.491C240.649 4.524 240.672 4.581 240.684 4.662L240.738 5.355Z" fill="white"/>
<path d="M223.413 16.778C223.413 17.261 223.336 17.7005 223.183 18.0965C223.03 18.4925 222.814 18.8315 222.535 19.1135C222.256 19.3955 221.92 19.6145 221.527 19.7705C221.137 19.9235 220.705 20 220.231 20H217.824V13.5515H220.231C220.705 13.5515 221.137 13.6295 221.527 13.7855C221.92 13.9385 222.256 14.1575 222.535 14.4425C222.814 14.7245 223.03 15.0635 223.183 15.4595C223.336 15.8555 223.413 16.295 223.413 16.778ZM222.517 16.778C222.517 16.382 222.463 16.028 222.355 15.716C222.247 15.404 222.094 15.14 221.896 14.924C221.698 14.708 221.458 14.543 221.176 14.429C220.894 14.315 220.579 14.258 220.231 14.258H218.697V19.2935H220.231C220.579 19.2935 220.894 19.2365 221.176 19.1225C221.458 19.0085 221.698 18.845 221.896 18.632C222.094 18.416 222.247 18.152 222.355 17.84C222.463 17.528 222.517 17.174 222.517 16.778ZM226.837 17.948C226.468 17.96 226.153 17.99 225.892 18.038C225.634 18.083 225.423 18.143 225.258 18.218C225.096 18.293 224.977 18.3815 224.902 18.4835C224.83 18.5855 224.794 18.6995 224.794 18.8255C224.794 18.9455 224.814 19.049 224.853 19.136C224.892 19.223 224.944 19.295 225.01 19.352C225.079 19.406 225.159 19.4465 225.249 19.4735C225.342 19.4975 225.441 19.5095 225.546 19.5095C225.687 19.5095 225.816 19.496 225.933 19.469C226.05 19.439 226.159 19.397 226.261 19.343C226.366 19.289 226.465 19.2245 226.558 19.1495C226.654 19.0745 226.747 18.989 226.837 18.893V17.948ZM224.25 16.085C224.502 15.842 224.773 15.6605 225.064 15.5405C225.355 15.4205 225.678 15.3605 226.032 15.3605C226.287 15.3605 226.513 15.4025 226.711 15.4865C226.909 15.5705 227.076 15.6875 227.211 15.8375C227.346 15.9875 227.448 16.169 227.517 16.382C227.586 16.595 227.62 16.829 227.62 17.084V20H227.265C227.187 20 227.127 19.988 227.085 19.964C227.043 19.937 227.01 19.886 226.986 19.811L226.896 19.379C226.776 19.49 226.659 19.589 226.545 19.676C226.431 19.76 226.311 19.832 226.185 19.892C226.059 19.949 225.924 19.9925 225.78 20.0225C225.639 20.0555 225.481 20.072 225.307 20.072C225.13 20.072 224.964 20.048 224.808 20C224.652 19.949 224.515 19.874 224.398 19.775C224.284 19.676 224.193 19.5515 224.124 19.4015C224.058 19.2485 224.025 19.0685 224.025 18.8615C224.025 18.6815 224.074 18.509 224.173 18.344C224.272 18.176 224.433 18.0275 224.655 17.8985C224.877 17.7695 225.166 17.6645 225.523 17.5835C225.88 17.4995 226.318 17.4515 226.837 17.4395V17.084C226.837 16.73 226.761 16.463 226.608 16.283C226.455 16.1 226.231 16.0085 225.937 16.0085C225.739 16.0085 225.573 16.034 225.438 16.085C225.306 16.133 225.19 16.1885 225.091 16.2515C224.995 16.3115 224.911 16.367 224.839 16.418C224.77 16.466 224.701 16.49 224.632 16.49C224.578 16.49 224.532 16.4765 224.493 16.4495C224.454 16.4195 224.421 16.3835 224.394 16.3415L224.25 16.085ZM230.179 20.072C229.819 20.072 229.541 19.9715 229.346 19.7705C229.154 19.5695 229.058 19.28 229.058 18.902V16.112H228.509C228.461 16.112 228.421 16.0985 228.388 16.0715C228.355 16.0415 228.338 15.9965 228.338 15.9365V15.617L229.085 15.5225L229.27 14.114C229.279 14.069 229.298 14.033 229.328 14.006C229.361 13.976 229.403 13.961 229.454 13.961H229.859V15.5315H231.178V16.112H229.859V18.848C229.859 19.04 229.906 19.1825 229.999 19.2755C230.092 19.3685 230.212 19.415 230.359 19.415C230.443 19.415 230.515 19.4045 230.575 19.3835C230.638 19.3595 230.692 19.334 230.737 19.307C230.782 19.28 230.819 19.256 230.849 19.235C230.882 19.211 230.911 19.199 230.935 19.199C230.977 19.199 231.014 19.2245 231.047 19.2755L231.281 19.658C231.143 19.787 230.977 19.889 230.782 19.964C230.587 20.036 230.386 20.072 230.179 20.072ZM234.475 17.948C234.106 17.96 233.791 17.99 233.53 18.038C233.272 18.083 233.061 18.143 232.896 18.218C232.734 18.293 232.615 18.3815 232.54 18.4835C232.468 18.5855 232.432 18.6995 232.432 18.8255C232.432 18.9455 232.452 19.049 232.491 19.136C232.53 19.223 232.582 19.295 232.648 19.352C232.717 19.406 232.797 19.4465 232.887 19.4735C232.98 19.4975 233.079 19.5095 233.184 19.5095C233.325 19.5095 233.454 19.496 233.571 19.469C233.688 19.439 233.797 19.397 233.899 19.343C234.004 19.289 234.103 19.2245 234.196 19.1495C234.292 19.0745 234.385 18.989 234.475 18.893V17.948ZM231.888 16.085C232.14 15.842 232.411 15.6605 232.702 15.5405C232.993 15.4205 233.316 15.3605 233.67 15.3605C233.925 15.3605 234.151 15.4025 234.349 15.4865C234.547 15.5705 234.714 15.6875 234.849 15.8375C234.984 15.9875 235.086 16.169 235.155 16.382C235.224 16.595 235.258 16.829 235.258 17.084V20H234.903C234.825 20 234.765 19.988 234.723 19.964C234.681 19.937 234.648 19.886 234.624 19.811L234.534 19.379C234.414 19.49 234.297 19.589 234.183 19.676C234.069 19.76 233.949 19.832 233.823 19.892C233.697 19.949 233.562 19.9925 233.418 20.0225C233.277 20.0555 233.119 20.072 232.945 20.072C232.768 20.072 232.602 20.048 232.446 20C232.29 19.949 232.153 19.874 232.036 19.775C231.922 19.676 231.831 19.5515 231.762 19.4015C231.696 19.2485 231.663 19.0685 231.663 18.8615C231.663 18.6815 231.712 18.509 231.811 18.344C231.91 18.176 232.071 18.0275 232.293 17.8985C232.515 17.7695 232.804 17.6645 233.161 17.5835C233.518 17.4995 233.956 17.4515 234.475 17.4395V17.084C234.475 16.73 234.399 16.463 234.246 16.283C234.093 16.1 233.869 16.0085 233.575 16.0085C233.377 16.0085 233.211 16.034 233.076 16.085C232.944 16.133 232.828 16.1885 232.729 16.2515C232.633 16.3115 232.549 16.367 232.477 16.418C232.408 16.466 232.339 16.49 232.27 16.49C232.216 16.49 232.17 16.4765 232.131 16.4495C232.092 16.4195 232.059 16.3835 232.032 16.3415L231.888 16.085Z" fill="white"/>
<path d="M244.131 193.551V200H243.694C243.625 200 243.567 199.988 243.519 199.964C243.474 199.94 243.429 199.899 243.384 199.842L239.653 194.982C239.659 195.057 239.664 195.131 239.667 195.203C239.67 195.275 239.671 195.342 239.671 195.405V200H238.906V193.551H239.356C239.395 193.551 239.428 193.554 239.455 193.56C239.482 193.563 239.506 193.571 239.527 193.583C239.548 193.592 239.569 193.607 239.59 193.628C239.611 193.646 239.634 193.67 239.658 193.7L243.388 198.555C243.382 198.477 243.376 198.402 243.37 198.33C243.367 198.255 243.366 198.185 243.366 198.119V193.551H244.131ZM247.371 195.369C247.704 195.369 248.004 195.425 248.271 195.536C248.538 195.647 248.766 195.804 248.955 196.008C249.144 196.212 249.288 196.46 249.387 196.751C249.489 197.039 249.54 197.361 249.54 197.718C249.54 198.078 249.489 198.402 249.387 198.69C249.288 198.978 249.144 199.224 248.955 199.428C248.766 199.632 248.538 199.79 248.271 199.901C248.004 200.009 247.704 200.063 247.371 200.063C247.035 200.063 246.732 200.009 246.462 199.901C246.195 199.79 245.967 199.632 245.778 199.428C245.589 199.224 245.443 198.978 245.341 198.69C245.242 198.402 245.193 198.078 245.193 197.718C245.193 197.361 245.242 197.039 245.341 196.751C245.443 196.46 245.589 196.212 245.778 196.008C245.967 195.804 246.195 195.647 246.462 195.536C246.732 195.425 247.035 195.369 247.371 195.369ZM247.371 199.438C247.821 199.438 248.157 199.287 248.379 198.987C248.601 198.684 248.712 198.263 248.712 197.723C248.712 197.18 248.601 196.757 248.379 196.454C248.157 196.151 247.821 195.999 247.371 195.999C247.143 195.999 246.943 196.038 246.772 196.116C246.604 196.194 246.463 196.307 246.349 196.454C246.238 196.601 246.154 196.782 246.097 196.998C246.043 197.211 246.016 197.453 246.016 197.723C246.016 198.263 246.127 198.684 246.349 198.987C246.574 199.287 246.915 199.438 247.371 199.438ZM256.772 195.441L255.296 200H254.662C254.584 200 254.53 199.949 254.5 199.847L253.492 196.755C253.468 196.686 253.448 196.617 253.433 196.548C253.418 196.476 253.403 196.406 253.388 196.337C253.373 196.406 253.358 196.476 253.343 196.548C253.328 196.617 253.309 196.688 253.285 196.76L252.259 199.847C252.232 199.949 252.172 200 252.079 200H251.476L250 195.441H250.63C250.693 195.441 250.745 195.458 250.787 195.491C250.832 195.524 250.862 195.563 250.877 195.608L251.75 198.542C251.801 198.758 251.842 198.962 251.872 199.154C251.899 199.055 251.926 198.954 251.953 198.852C251.983 198.75 252.014 198.647 252.047 198.542L253.01 195.59C253.025 195.545 253.051 195.507 253.087 195.478C253.126 195.447 253.172 195.432 253.226 195.432H253.577C253.637 195.432 253.687 195.447 253.726 195.478C253.765 195.507 253.792 195.545 253.807 195.59L254.747 198.542C254.78 198.647 254.81 198.75 254.837 198.852C254.864 198.954 254.89 199.055 254.914 199.154C254.929 199.055 254.947 198.956 254.968 198.857C254.992 198.755 255.017 198.65 255.044 198.542L255.935 195.608C255.95 195.56 255.979 195.521 256.021 195.491C256.063 195.458 256.112 195.441 256.169 195.441H256.772Z" fill="white"/>
<path d="M4.64204 36.388V37H1.18604V36.388H2.56754V31.9915C2.56754 31.8595 2.57204 31.726 2.58104 31.591L1.43354 32.5765C1.39454 32.6095 1.35554 32.6305 1.31654 32.6395C1.27754 32.6455 1.24154 32.6455 1.20854 32.6395C1.17554 32.6335 1.14404 32.6215 1.11404 32.6035C1.08704 32.5855 1.06604 32.566 1.05104 32.545L0.799035 32.1985L2.72054 30.538H3.37304V36.388H4.64204ZM10.2317 33.778C10.2317 34.342 10.1702 34.831 10.0472 35.245C9.92724 35.656 9.76224 35.9965 9.55224 36.2665C9.34224 36.5365 9.09324 36.7375 8.80524 36.8695C8.52024 37.0015 8.21424 37.0675 7.88724 37.0675C7.55724 37.0675 7.24974 37.0015 6.96474 36.8695C6.68274 36.7375 6.43674 36.5365 6.22674 36.2665C6.01674 35.9965 5.85174 35.656 5.73174 35.245C5.61174 34.831 5.55174 34.342 5.55174 33.778C5.55174 33.214 5.61174 32.725 5.73174 32.311C5.85174 31.897 6.01674 31.555 6.22674 31.285C6.43674 31.012 6.68274 30.8095 6.96474 30.6775C7.24974 30.5455 7.55724 30.4795 7.88724 30.4795C8.21424 30.4795 8.52024 30.5455 8.80524 30.6775C9.09324 30.8095 9.34224 31.012 9.55224 31.285C9.76224 31.555 9.92724 31.897 10.0472 32.311C10.1702 32.725 10.2317 33.214 10.2317 33.778ZM9.39924 33.778C9.39924 33.286 9.35724 32.8735 9.27324 32.5405C9.19224 32.2045 9.08124 31.9345 8.94024 31.7305C8.80224 31.5265 8.64174 31.381 8.45874 31.294C8.27574 31.204 8.08524 31.159 7.88724 31.159C7.68924 31.159 7.49874 31.204 7.31574 31.294C7.13274 31.381 6.97224 31.5265 6.83424 31.7305C6.69624 31.9345 6.58524 32.2045 6.50124 32.5405C6.42024 32.8735 6.37974 33.286 6.37974 33.778C6.37974 34.27 6.42024 34.6825 6.50124 35.0155C6.58524 35.3485 6.69624 35.617 6.83424 35.821C6.97224 36.025 7.13274 36.172 7.31574 36.262C7.49874 36.349 7.68924 36.3925 7.88724 36.3925C8.08524 36.3925 8.27574 36.349 8.45874 36.262C8.64174 36.172 8.80224 36.025 8.94024 35.821C9.08124 35.617 9.19224 35.3485 9.27324 35.0155C9.35724 34.6825 9.39924 34.27 9.39924 33.778ZM15.4524 33.778C15.4524 34.342 15.3909 34.831 15.2679 35.245C15.1479 35.656 14.9829 35.9965 14.7729 36.2665C14.5629 36.5365 14.3139 36.7375 14.0259 36.8695C13.7409 37.0015 13.4349 37.0675 13.1079 37.0675C12.7779 37.0675 12.4704 37.0015 12.1854 36.8695C11.9034 36.7375 11.6574 36.5365 11.4474 36.2665C11.2374 35.9965 11.0724 35.656 10.9524 35.245C10.8324 34.831 10.7724 34.342 10.7724 33.778C10.7724 33.214 10.8324 32.725 10.9524 32.311C11.0724 31.897 11.2374 31.555 11.4474 31.285C11.6574 31.012 11.9034 30.8095 12.1854 30.6775C12.4704 30.5455 12.7779 30.4795 13.1079 30.4795C13.4349 30.4795 13.7409 30.5455 14.0259 30.6775C14.3139 30.8095 14.5629 31.012 14.7729 31.285C14.9829 31.555 15.1479 31.897 15.2679 32.311C15.3909 32.725 15.4524 33.214 15.4524 33.778ZM14.6199 33.778C14.6199 33.286 14.5779 32.8735 14.4939 32.5405C14.4129 32.2045 14.3019 31.9345 14.1609 31.7305C14.0229 31.5265 13.8624 31.381 13.6794 31.294C13.4964 31.204 13.3059 31.159 13.1079 31.159C12.9099 31.159 12.7194 31.204 12.5364 31.294C12.3534 31.381 12.1929 31.5265 12.0549 31.7305C11.9169 31.9345 11.8059 32.2045 11.7219 32.5405C11.6409 32.8735 11.6004 33.286 11.6004 33.778C11.6004 34.27 11.6409 34.6825 11.7219 35.0155C11.8059 35.3485 11.9169 35.617 12.0549 35.821C12.1929 36.025 12.3534 36.172 12.5364 36.262C12.7194 36.349 12.9099 36.3925 13.1079 36.3925C13.3059 36.3925 13.4964 36.349 13.6794 36.262C13.8624 36.172 14.0229 36.025 14.1609 35.821C14.3019 35.617 14.4129 35.3485 14.4939 35.0155C14.5779 34.6825 14.6199 34.27 14.6199 33.778ZM18.9721 32.1085C18.9721 32.3605 18.9331 32.587 18.8551 32.788C18.7771 32.986 18.6721 33.154 18.5401 33.292C18.4111 33.427 18.2596 33.5305 18.0856 33.6025C17.9146 33.6745 17.7331 33.7105 17.5411 33.7105C17.3401 33.7105 17.1526 33.6745 16.9786 33.6025C16.8046 33.5305 16.6531 33.427 16.5241 33.292C16.3981 33.154 16.2991 32.986 16.2271 32.788C16.1551 32.587 16.1191 32.3605 16.1191 32.1085C16.1191 31.8505 16.1551 31.621 16.2271 31.42C16.2991 31.219 16.3981 31.0495 16.5241 30.9115C16.6531 30.7735 16.8046 30.6685 16.9786 30.5965C17.1526 30.5245 17.3401 30.4885 17.5411 30.4885C17.7451 30.4885 17.9341 30.5245 18.1081 30.5965C18.2821 30.6685 18.4336 30.7735 18.5626 30.9115C18.6916 31.0495 18.7921 31.219 18.8641 31.42C18.9361 31.621 18.9721 31.8505 18.9721 32.1085ZM18.3511 32.1085C18.3511 31.9105 18.3301 31.7425 18.2881 31.6045C18.2461 31.4665 18.1876 31.354 18.1126 31.267C18.0406 31.177 17.9551 31.1125 17.8561 31.0735C17.7571 31.0345 17.6521 31.015 17.5411 31.015C17.4301 31.015 17.3266 31.0345 17.2306 31.0735C17.1346 31.1125 17.0506 31.177 16.9786 31.267C16.9066 31.354 16.8496 31.4665 16.8076 31.6045C16.7656 31.7425 16.7446 31.9105 16.7446 32.1085C16.7446 32.3035 16.7656 32.47 16.8076 32.608C16.8496 32.743 16.9066 32.854 16.9786 32.941C17.0506 33.025 17.1346 33.0865 17.2306 33.1255C17.3266 33.1615 17.4301 33.1795 17.5411 33.1795C17.6521 33.1795 17.7571 33.1615 17.8561 33.1255C17.9551 33.0865 18.0406 33.025 18.1126 32.941C18.1876 32.854 18.2461 32.743 18.2881 32.608C18.3301 32.47 18.3511 32.3035 18.3511 32.1085ZM21.2536 30.6865C21.2836 30.6505 21.3181 30.619 21.3571 30.592C21.3991 30.565 21.4546 30.5515 21.5236 30.5515H22.1041L17.3881 36.8695C17.3611 36.9085 17.3266 36.94 17.2846 36.964C17.2426 36.988 17.1916 37 17.1316 37H16.5421L21.2536 30.6865ZM22.5406 35.479C22.5406 35.731 22.5016 35.956 22.4236 36.154C22.3456 36.352 22.2406 36.52 22.1086 36.658C21.9796 36.793 21.8281 36.8965 21.6541 36.9685C21.4831 37.0405 21.3016 37.0765 21.1096 37.0765C20.9056 37.0765 20.7166 37.0405 20.5426 36.9685C20.3716 36.8965 20.2216 36.793 20.0926 36.658C19.9666 36.52 19.8676 36.352 19.7956 36.154C19.7236 35.956 19.6876 35.731 19.6876 35.479C19.6876 35.221 19.7236 34.9915 19.7956 34.7905C19.8676 34.5865 19.9666 34.4155 20.0926 34.2775C20.2216 34.1395 20.3716 34.0345 20.5426 33.9625C20.7166 33.8905 20.9056 33.8545 21.1096 33.8545C21.3106 33.8545 21.4981 33.8905 21.6721 33.9625C21.8491 34.0345 22.0006 34.1395 22.1266 34.2775C22.2556 34.4155 22.3561 34.5865 22.4281 34.7905C22.5031 34.9915 22.5406 35.221 22.5406 35.479ZM21.9196 35.479C21.9196 35.281 21.8986 35.113 21.8566 34.975C21.8146 34.834 21.7561 34.72 21.6811 34.633C21.6091 34.546 21.5236 34.483 21.4246 34.444C21.3256 34.405 21.2206 34.3855 21.1096 34.3855C20.9986 34.3855 20.8936 34.405 20.7946 34.444C20.6986 34.483 20.6146 34.546 20.5426 34.633C20.4706 34.72 20.4136 34.834 20.3716 34.975C20.3326 35.113 20.3131 35.281 20.3131 35.479C20.3131 35.674 20.3326 35.839 20.3716 35.974C20.4136 36.109 20.4706 36.22 20.5426 36.307C20.6146 36.391 20.6986 36.4525 20.7946 36.4915C20.8936 36.5275 20.9986 36.5455 21.1096 36.5455C21.2206 36.5455 21.3256 36.5275 21.4246 36.4915C21.5236 36.4525 21.6091 36.391 21.6811 36.307C21.7561 36.22 21.8146 36.109 21.8566 35.974C21.8986 35.839 21.9196 35.674 21.9196 35.479Z" fill="white"/>
<path d="M3.80039 104.986C4.13639 104.914 4.44539 104.878 4.72739 104.878C5.06339 104.878 5.36039 104.927 5.61839 105.026C5.87639 105.125 6.09089 105.262 6.26189 105.436C6.43589 105.61 6.56639 105.815 6.65339 106.052C6.74339 106.289 6.78839 106.547 6.78839 106.826C6.78839 107.168 6.72839 107.477 6.60839 107.753C6.49139 108.029 6.32789 108.266 6.11789 108.464C5.91089 108.659 5.66639 108.809 5.38439 108.914C5.10239 109.02 4.79789 109.072 4.47089 109.072C4.28189 109.072 4.10039 109.053 3.92639 109.014C3.75239 108.977 3.58889 108.928 3.43589 108.865C3.28589 108.802 3.14639 108.73 3.01739 108.649C2.88839 108.568 2.77439 108.482 2.67539 108.392L2.92289 108.05C2.97689 107.972 3.04739 107.933 3.13439 107.933C3.19439 107.933 3.26189 107.957 3.33689 108.005C3.41189 108.05 3.50339 108.101 3.61139 108.158C3.71939 108.215 3.84539 108.268 3.98939 108.316C4.13639 108.361 4.31039 108.383 4.51139 108.383C4.73639 108.383 4.93889 108.347 5.11889 108.275C5.29889 108.203 5.45339 108.101 5.58239 107.969C5.71139 107.834 5.81039 107.674 5.87939 107.488C5.94839 107.302 5.98289 107.093 5.98289 106.862C5.98289 106.661 5.95289 106.48 5.89289 106.318C5.83589 106.156 5.74739 106.018 5.62739 105.904C5.51039 105.79 5.36339 105.701 5.18639 105.638C5.00939 105.575 4.80239 105.544 4.56539 105.544C4.40339 105.544 4.23389 105.557 4.05689 105.584C3.88289 105.611 3.70439 105.655 3.52139 105.715L3.01739 105.566L3.53489 102.551H6.59039V102.902C6.59039 103.016 6.55439 103.111 6.48239 103.186C6.41339 103.258 6.29339 103.294 6.12239 103.294H4.09739L3.80039 104.986ZM12.3421 105.778C12.3421 106.342 12.2806 106.831 12.1576 107.245C12.0376 107.656 11.8726 107.996 11.6626 108.266C11.4526 108.536 11.2036 108.737 10.9156 108.869C10.6306 109.002 10.3246 109.068 9.99759 109.068C9.66759 109.068 9.36009 109.002 9.07509 108.869C8.79309 108.737 8.54709 108.536 8.33709 108.266C8.12709 107.996 7.96209 107.656 7.84209 107.245C7.72209 106.831 7.66209 106.342 7.66209 105.778C7.66209 105.214 7.72209 104.725 7.84209 104.311C7.96209 103.897 8.12709 103.555 8.33709 103.285C8.54709 103.012 8.79309 102.809 9.07509 102.677C9.36009 102.545 9.66759 102.479 9.99759 102.479C10.3246 102.479 10.6306 102.545 10.9156 102.677C11.2036 102.809 11.4526 103.012 11.6626 103.285C11.8726 103.555 12.0376 103.897 12.1576 104.311C12.2806 104.725 12.3421 105.214 12.3421 105.778ZM11.5096 105.778C11.5096 105.286 11.4676 104.873 11.3836 104.54C11.3026 104.204 11.1916 103.934 11.0506 103.73C10.9126 103.526 10.7521 103.381 10.5691 103.294C10.3861 103.204 10.1956 103.159 9.99759 103.159C9.79959 103.159 9.60909 103.204 9.42609 103.294C9.24309 103.381 9.08259 103.526 8.94459 103.73C8.80659 103.934 8.69559 104.204 8.61159 104.54C8.53059 104.873 8.49009 105.286 8.49009 105.778C8.49009 106.27 8.53059 106.682 8.61159 107.015C8.69559 107.348 8.80659 107.617 8.94459 107.821C9.08259 108.025 9.24309 108.172 9.42609 108.262C9.60909 108.349 9.79959 108.392 9.99759 108.392C10.1956 108.392 10.3861 108.349 10.5691 108.262C10.7521 108.172 10.9126 108.025 11.0506 107.821C11.1916 107.617 11.3026 107.348 11.3836 107.015C11.4676 106.682 11.5096 106.27 11.5096 105.778ZM15.8618 104.108C15.8618 104.36 15.8228 104.587 15.7448 104.788C15.6668 104.986 15.5618 105.154 15.4298 105.292C15.3008 105.427 15.1493 105.53 14.9753 105.602C14.8043 105.674 14.6228 105.71 14.4308 105.71C14.2298 105.71 14.0423 105.674 13.8683 105.602C13.6943 105.53 13.5428 105.427 13.4138 105.292C13.2878 105.154 13.1888 104.986 13.1168 104.788C13.0448 104.587 13.0088 104.36 13.0088 104.108C13.0088 103.85 13.0448 103.621 13.1168 103.42C13.1888 103.219 13.2878 103.049 13.4138 102.911C13.5428 102.773 13.6943 102.668 13.8683 102.596C14.0423 102.524 14.2298 102.488 14.4308 102.488C14.6348 102.488 14.8238 102.524 14.9978 102.596C15.1718 102.668 15.3233 102.773 15.4523 102.911C15.5813 103.049 15.6818 103.219 15.7538 103.42C15.8258 103.621 15.8618 103.85 15.8618 104.108ZM15.2408 104.108C15.2408 103.91 15.2198 103.743 15.1778 103.604C15.1358 103.466 15.0773 103.354 15.0023 103.267C14.9303 103.177 14.8448 103.112 14.7458 103.073C14.6468 103.034 14.5418 103.015 14.4308 103.015C14.3198 103.015 14.2163 103.034 14.1203 103.073C14.0243 103.112 13.9403 103.177 13.8683 103.267C13.7963 103.354 13.7393 103.466 13.6973 103.604C13.6553 103.743 13.6343 103.91 13.6343 104.108C13.6343 104.303 13.6553 104.47 13.6973 104.608C13.7393 104.743 13.7963 104.854 13.8683 104.941C13.9403 105.025 14.0243 105.086 14.1203 105.125C14.2163 105.161 14.3198 105.179 14.4308 105.179C14.5418 105.179 14.6468 105.161 14.7458 105.125C14.8448 105.086 14.9303 105.025 15.0023 104.941C15.0773 104.854 15.1358 104.743 15.1778 104.608C15.2198 104.47 15.2408 104.303 15.2408 104.108ZM18.1433 102.686C18.1733 102.65 18.2078 102.619 18.2468 102.592C18.2888 102.565 18.3443 102.551 18.4133 102.551H18.9938L14.2778 108.869C14.2508 108.908 14.2163 108.94 14.1743 108.964C14.1323 108.988 14.0813 109 14.0213 109H13.4318L18.1433 102.686ZM19.4303 107.479C19.4303 107.731 19.3913 107.956 19.3133 108.154C19.2353 108.352 19.1303 108.52 18.9983 108.658C18.8693 108.793 18.7178 108.896 18.5438 108.968C18.3728 109.041 18.1913 109.077 17.9993 109.077C17.7953 109.077 17.6063 109.041 17.4323 108.968C17.2613 108.896 17.1113 108.793 16.9823 108.658C16.8563 108.52 16.7573 108.352 16.6853 108.154C16.6133 107.956 16.5773 107.731 16.5773 107.479C16.5773 107.221 16.6133 106.991 16.6853 106.79C16.7573 106.586 16.8563 106.415 16.9823 106.277C17.1113 106.139 17.2613 106.034 17.4323 105.962C17.6063 105.89 17.7953 105.854 17.9993 105.854C18.2003 105.854 18.3878 105.89 18.5618 105.962C18.7388 106.034 18.8903 106.139 19.0163 106.277C19.1453 106.415 19.2458 106.586 19.3178 106.79C19.3928 106.991 19.4303 107.221 19.4303 107.479ZM18.8093 107.479C18.8093 107.281 18.7883 107.113 18.7463 106.975C18.7043 106.834 18.6458 106.72 18.5708 106.633C18.4988 106.546 18.4133 106.483 18.3143 106.444C18.2153 106.405 18.1103 106.385 17.9993 106.385C17.8883 106.385 17.7833 106.405 17.6843 106.444C17.5883 106.483 17.5043 106.546 17.4323 106.633C17.3603 106.72 17.3033 106.834 17.2613 106.975C17.2223 107.113 17.2028 107.281 17.2028 107.479C17.2028 107.674 17.2223 107.839 17.2613 107.974C17.3033 108.109 17.3603 108.22 17.4323 108.307C17.5043 108.391 17.5883 108.452 17.6843 108.491C17.7833 108.527 17.8883 108.545 17.9993 108.545C18.1103 108.545 18.2153 108.527 18.3143 108.491C18.4133 108.452 18.4988 108.391 18.5708 108.307C18.6458 108.22 18.7043 108.109 18.7463 107.974C18.7883 107.839 18.8093 107.674 18.8093 107.479Z" fill="white"/>
<path d="M41.5536 196.93V199.5H40.6806V196.93L38.3181 193.051H39.0831C39.1611 193.051 39.2226 193.071 39.2676 193.11C39.3126 193.146 39.3516 193.194 39.3846 193.254L40.8606 195.76C40.9146 195.865 40.9641 195.964 41.0091 196.057C41.0541 196.147 41.0931 196.239 41.1261 196.332C41.1591 196.239 41.1966 196.147 41.2386 196.057C41.2806 195.964 41.3271 195.865 41.3781 195.76L42.8496 193.254C42.8766 193.203 42.9141 193.156 42.9621 193.114C43.0101 193.072 43.0716 193.051 43.1466 193.051H43.9161L41.5536 196.93ZM46.6264 196.723C46.6264 196.537 46.5994 196.368 46.5454 196.215C46.4944 196.059 46.4179 195.925 46.3159 195.814C46.2169 195.7 46.0954 195.613 45.9514 195.553C45.8074 195.49 45.6439 195.459 45.4609 195.459C45.0769 195.459 44.7724 195.571 44.5474 195.796C44.3254 196.018 44.1874 196.327 44.1334 196.723H46.6264ZM47.2744 198.861C47.1754 198.981 47.0569 199.086 46.9189 199.176C46.7809 199.263 46.6324 199.335 46.4734 199.392C46.3174 199.449 46.1554 199.491 45.9874 199.518C45.8194 199.548 45.6529 199.563 45.4879 199.563C45.1729 199.563 44.8819 199.51 44.6149 199.405C44.3509 199.297 44.1214 199.141 43.9264 198.938C43.7344 198.73 43.5844 198.475 43.4764 198.172C43.3684 197.869 43.3144 197.521 43.3144 197.128C43.3144 196.81 43.3624 196.513 43.4584 196.237C43.5574 195.961 43.6984 195.723 43.8814 195.522C44.0644 195.318 44.2879 195.159 44.5519 195.045C44.8159 194.928 45.1129 194.869 45.4429 194.869C45.7159 194.869 45.9679 194.916 46.1989 195.009C46.4329 195.099 46.6339 195.231 46.8019 195.405C46.9729 195.576 47.1064 195.789 47.2024 196.044C47.2984 196.296 47.3464 196.584 47.3464 196.908C47.3464 197.034 47.3329 197.118 47.3059 197.16C47.2789 197.202 47.2279 197.223 47.1529 197.223H44.1064C44.1154 197.511 44.1544 197.761 44.2234 197.974C44.2954 198.187 44.3944 198.366 44.5204 198.51C44.6464 198.651 44.7964 198.757 44.9704 198.829C45.1444 198.898 45.3394 198.933 45.5554 198.933C45.7564 198.933 45.9289 198.91 46.0729 198.865C46.2199 198.817 46.3459 198.766 46.4509 198.712C46.5559 198.658 46.6429 198.609 46.7119 198.564C46.7839 198.516 46.8454 198.492 46.8964 198.492C46.9624 198.492 47.0134 198.517 47.0494 198.568L47.2744 198.861ZM50.9853 195.693C50.9493 195.759 50.8938 195.792 50.8188 195.792C50.7738 195.792 50.7228 195.775 50.6658 195.742C50.6088 195.709 50.5383 195.673 50.4543 195.634C50.3733 195.592 50.2758 195.555 50.1618 195.522C50.0478 195.486 49.9128 195.468 49.7568 195.468C49.6218 195.468 49.5003 195.486 49.3923 195.522C49.2843 195.555 49.1913 195.601 49.1133 195.661C49.0383 195.721 48.9798 195.792 48.9378 195.873C48.8988 195.951 48.8793 196.036 48.8793 196.129C48.8793 196.246 48.9123 196.344 48.9783 196.422C49.0473 196.5 49.1373 196.567 49.2483 196.624C49.3593 196.681 49.4853 196.732 49.6263 196.777C49.7673 196.819 49.9113 196.866 50.0583 196.917C50.2083 196.965 50.3538 197.019 50.4948 197.079C50.6358 197.139 50.7618 197.214 50.8728 197.304C50.9838 197.394 51.0723 197.505 51.1383 197.637C51.2073 197.766 51.2418 197.922 51.2418 198.105C51.2418 198.315 51.2043 198.51 51.1293 198.69C51.0543 198.867 50.9433 199.021 50.7963 199.153C50.6493 199.282 50.4693 199.384 50.2563 199.459C50.0433 199.535 49.7973 199.572 49.5183 199.572C49.2003 199.572 48.9123 199.521 48.6543 199.419C48.3963 199.314 48.1773 199.18 47.9973 199.018L48.1863 198.712C48.2103 198.673 48.2388 198.643 48.2718 198.622C48.3048 198.601 48.3468 198.591 48.3978 198.591C48.4518 198.591 48.5088 198.612 48.5688 198.654C48.6288 198.696 48.7008 198.742 48.7848 198.793C48.8718 198.844 48.9768 198.891 49.0998 198.933C49.2228 198.975 49.3758 198.996 49.5588 198.996C49.7148 198.996 49.8513 198.976 49.9683 198.938C50.0853 198.895 50.1828 198.84 50.2608 198.771C50.3388 198.702 50.3958 198.622 50.4318 198.532C50.4708 198.442 50.4903 198.346 50.4903 198.244C50.4903 198.118 50.4558 198.015 50.3868 197.934C50.3208 197.85 50.2323 197.779 50.1213 197.722C50.0103 197.662 49.8828 197.611 49.7388 197.569C49.5978 197.524 49.4523 197.478 49.3023 197.43C49.1553 197.382 49.0098 197.328 48.8658 197.268C48.7248 197.205 48.5988 197.127 48.4878 197.034C48.3768 196.941 48.2868 196.827 48.2178 196.692C48.1518 196.554 48.1188 196.387 48.1188 196.192C48.1188 196.018 48.1548 195.852 48.2268 195.693C48.2988 195.531 48.4038 195.39 48.5418 195.27C48.6798 195.147 48.8493 195.049 49.0503 194.978C49.2513 194.905 49.4808 194.869 49.7388 194.869C50.0388 194.869 50.3073 194.917 50.5443 195.013C50.7843 195.106 50.9913 195.235 51.1653 195.4L50.9853 195.693ZM53.6234 199.572C53.2634 199.572 52.9859 199.471 52.7909 199.27C52.5989 199.069 52.5029 198.78 52.5029 198.402V195.612H51.9539C51.9059 195.612 51.8654 195.598 51.8324 195.571C51.7994 195.541 51.7829 195.496 51.7829 195.436V195.117L52.5299 195.022L52.7144 193.614C52.7234 193.569 52.7429 193.533 52.7729 193.506C52.8059 193.476 52.8479 193.461 52.8989 193.461H53.3039V195.031H54.6224V195.612H53.3039V198.348C53.3039 198.54 53.3504 198.682 53.4434 198.775C53.5364 198.868 53.6564 198.915 53.8034 198.915C53.8874 198.915 53.9594 198.904 54.0194 198.883C54.0824 198.859 54.1364 198.834 54.1814 198.807C54.2264 198.78 54.2639 198.756 54.2939 198.735C54.3269 198.711 54.3554 198.699 54.3794 198.699C54.4214 198.699 54.4589 198.724 54.4919 198.775L54.7259 199.158C54.5879 199.287 54.4214 199.389 54.2264 199.464C54.0314 199.536 53.8304 199.572 53.6234 199.572ZM58.4741 196.723C58.4741 196.537 58.4471 196.368 58.3931 196.215C58.3421 196.059 58.2656 195.925 58.1636 195.814C58.0646 195.7 57.9431 195.613 57.7991 195.553C57.6551 195.49 57.4916 195.459 57.3086 195.459C56.9246 195.459 56.6201 195.571 56.3951 195.796C56.1731 196.018 56.0351 196.327 55.9811 196.723H58.4741ZM59.1221 198.861C59.0231 198.981 58.9046 199.086 58.7666 199.176C58.6286 199.263 58.4801 199.335 58.3211 199.392C58.1651 199.449 58.0031 199.491 57.8351 199.518C57.6671 199.548 57.5006 199.563 57.3356 199.563C57.0206 199.563 56.7296 199.51 56.4626 199.405C56.1986 199.297 55.9691 199.141 55.7741 198.938C55.5821 198.73 55.4321 198.475 55.3241 198.172C55.2161 197.869 55.1621 197.521 55.1621 197.128C55.1621 196.81 55.2101 196.513 55.3061 196.237C55.4051 195.961 55.5461 195.723 55.7291 195.522C55.9121 195.318 56.1356 195.159 56.3996 195.045C56.6636 194.928 56.9606 194.869 57.2906 194.869C57.5636 194.869 57.8156 194.916 58.0466 195.009C58.2806 195.099 58.4816 195.231 58.6496 195.405C58.8206 195.576 58.9541 195.789 59.0501 196.044C59.1461 196.296 59.1941 196.584 59.1941 196.908C59.1941 197.034 59.1806 197.118 59.1536 197.16C59.1266 197.202 59.0756 197.223 59.0006 197.223H55.9541C55.9631 197.511 56.0021 197.761 56.0711 197.974C56.1431 198.187 56.2421 198.366 56.3681 198.51C56.4941 198.651 56.6441 198.757 56.8181 198.829C56.9921 198.898 57.1871 198.933 57.4031 198.933C57.6041 198.933 57.7766 198.91 57.9206 198.865C58.0676 198.817 58.1936 198.766 58.2986 198.712C58.4036 198.658 58.4906 198.609 58.5596 198.564C58.6316 198.516 58.6931 198.492 58.7441 198.492C58.8101 198.492 58.8611 198.517 58.8971 198.568L59.1221 198.861ZM60.9385 195.855C61.0825 195.543 61.2595 195.3 61.4695 195.126C61.6795 194.949 61.936 194.86 62.239 194.86C62.335 194.86 62.4265 194.871 62.5135 194.892C62.6035 194.913 62.683 194.946 62.752 194.991L62.6935 195.589C62.6755 195.664 62.6305 195.702 62.5585 195.702C62.5165 195.702 62.455 195.693 62.374 195.675C62.293 195.657 62.2015 195.648 62.0995 195.648C61.9555 195.648 61.8265 195.669 61.7125 195.711C61.6015 195.753 61.501 195.816 61.411 195.9C61.324 195.981 61.2445 196.083 61.1725 196.206C61.1035 196.326 61.0405 196.464 60.9835 196.62V199.5H60.178V194.941H60.637C60.724 194.941 60.784 194.958 60.817 194.991C60.85 195.024 60.8725 195.081 60.8845 195.162L60.9385 195.855ZM66.2505 196.026C66.1005 195.825 65.9385 195.685 65.7645 195.607C65.5905 195.526 65.3955 195.486 65.1795 195.486C64.7565 195.486 64.431 195.637 64.203 195.94C63.975 196.243 63.861 196.675 63.861 197.236C63.861 197.533 63.8865 197.788 63.9375 198.001C63.9885 198.211 64.0635 198.385 64.1625 198.523C64.2615 198.658 64.383 198.757 64.527 198.82C64.671 198.883 64.8345 198.915 65.0175 198.915C65.2815 198.915 65.511 198.855 65.706 198.735C65.904 198.615 66.0855 198.445 66.2505 198.226V196.026ZM67.0515 192.871V199.5H66.5745C66.4605 199.5 66.3885 199.444 66.3585 199.333L66.2865 198.78C66.0915 199.014 65.8695 199.203 65.6205 199.347C65.3715 199.491 65.0835 199.563 64.7565 199.563C64.4955 199.563 64.2585 199.513 64.0455 199.414C63.8325 199.312 63.651 199.164 63.501 198.969C63.351 198.774 63.2355 198.531 63.1545 198.24C63.0735 197.949 63.033 197.614 63.033 197.236C63.033 196.9 63.078 196.588 63.168 196.3C63.258 196.009 63.387 195.757 63.555 195.544C63.723 195.331 63.9285 195.165 64.1715 195.045C64.4175 194.922 64.6935 194.86 64.9995 194.86C65.2785 194.86 65.517 194.908 65.715 195.004C65.916 195.097 66.0945 195.228 66.2505 195.396V192.871H67.0515ZM70.7871 197.448C70.4181 197.46 70.1031 197.49 69.8421 197.538C69.5841 197.583 69.3726 197.643 69.2076 197.718C69.0456 197.793 68.9271 197.881 68.8521 197.983C68.7801 198.085 68.7441 198.199 68.7441 198.325C68.7441 198.445 68.7636 198.549 68.8026 198.636C68.8416 198.723 68.8941 198.795 68.9601 198.852C69.0291 198.906 69.1086 198.946 69.1986 198.973C69.2916 198.997 69.3906 199.009 69.4956 199.009C69.6366 199.009 69.7656 198.996 69.8826 198.969C69.9996 198.939 70.1091 198.897 70.2111 198.843C70.3161 198.789 70.4151 198.724 70.5081 198.649C70.6041 198.574 70.6971 198.489 70.7871 198.393V197.448ZM68.1996 195.585C68.4516 195.342 68.7231 195.16 69.0141 195.04C69.3051 194.92 69.6276 194.86 69.9816 194.86C70.2366 194.86 70.4631 194.902 70.6611 194.986C70.8591 195.07 71.0256 195.187 71.1606 195.337C71.2956 195.487 71.3976 195.669 71.4666 195.882C71.5356 196.095 71.5701 196.329 71.5701 196.584V199.5H71.2146C71.1366 199.5 71.0766 199.488 71.0346 199.464C70.9926 199.437 70.9596 199.386 70.9356 199.311L70.8456 198.879C70.7256 198.99 70.6086 199.089 70.4946 199.176C70.3806 199.26 70.2606 199.332 70.1346 199.392C70.0086 199.449 69.8736 199.492 69.7296 199.523C69.5886 199.556 69.4311 199.572 69.2571 199.572C69.0801 199.572 68.9136 199.548 68.7576 199.5C68.6016 199.449 68.4651 199.374 68.3481 199.275C68.2341 199.176 68.1426 199.051 68.0736 198.901C68.0076 198.748 67.9746 198.568 67.9746 198.361C67.9746 198.181 68.0241 198.009 68.1231 197.844C68.2221 197.676 68.3826 197.527 68.6046 197.398C68.8266 197.269 69.1161 197.164 69.4731 197.083C69.8301 197 70.2681 196.951 70.7871 196.939V196.584C70.7871 196.23 70.7106 195.963 70.5576 195.783C70.4046 195.6 70.1811 195.508 69.8871 195.508C69.6891 195.508 69.5226 195.534 69.3876 195.585C69.2556 195.633 69.1401 195.688 69.0411 195.751C68.9451 195.811 68.8611 195.867 68.7891 195.918C68.7201 195.966 68.6511 195.99 68.5821 195.99C68.5281 195.99 68.4816 195.976 68.4426 195.949C68.4036 195.919 68.3706 195.883 68.3436 195.841L68.1996 195.585ZM76.6178 194.941L74.0753 200.846C74.0483 200.906 74.0138 200.954 73.9718 200.99C73.9328 201.026 73.8713 201.044 73.7873 201.044H73.1933L74.0258 199.234L72.1448 194.941H72.8378C72.9068 194.941 72.9608 194.959 72.9998 194.995C73.0418 195.028 73.0703 195.066 73.0853 195.108L74.3048 197.979C74.3528 198.105 74.3933 198.237 74.4263 198.375C74.4683 198.234 74.5133 198.1 74.5613 197.974L75.7448 195.108C75.7628 195.06 75.7928 195.021 75.8348 194.991C75.8798 194.958 75.9293 194.941 75.9833 194.941H76.6178Z" fill="white"/>
<path d="M246.5 180.5V189.5" stroke="#C4C4C4"/>
<path d="M56.5 180V189" stroke="#C4C4C4"/>
<path d="M26 34H34" stroke="#C4C4C4"/>
<path d="M26 106H34" stroke="#C4C4C4"/>
<path d="M30.5 87.5H273" stroke="#5B5B5B" stroke-dasharray="1 1"/>
<path d="M57.5 173.5L91 159.5L132 170L171 159.5L222 173.5L247 159.5" stroke="#056114" stroke-width="3" stroke-dasharray="2 5"/>
<defs>
<linearGradient id="paint0_linear" x1="152" y1="185" x2="152" y2="125" gradientUnits="userSpaceOnUse">
<stop stop-color="#B8FADA"/>
<stop offset="1" stop-color="#08FB86"/>
</linearGradient>
<linearGradient id="paint1_linear" x1="152" y1="159" x2="152" y2="185.5" gradientUnits="userSpaceOnUse">
<stop stop-color="#0AA04F"/>
<stop offset="1" stop-color="#7BE5AC"/>
</linearGradient>
</defs>
</svg>
